<?xml version="1.0" encoding="UTF-8"?>
<svg xmlns="http://www.w3.org/2000/svg" version="1.1" viewBox="0 0 110 30">
  <!-- Generator: Adobe Illustrator 29.5.0, SVG Export Plug-In . SVG Version: 2.1.0 Build 137)  -->
  <defs>
    <style>
      .st0 {
        mix-blend-mode: multiply;
      }

      .st0, .st1 {
        isolation: isolate;
      }

      .st2 {
        fill: #003b71;
      }

      .st3 {
        fill: #113256;
      }

      .st4 {
        fill: #5b89b4;
      }
    </style>
  </defs>
  <g class="st1">
    <g id="Layer_1">
      <g>
        <path class="st2" d="M7.2,16.6v6.6h4.6c1.1,0,2.3,0,3.4-.2.7-.1,1.3-.5,1.8-1,.5-.6.7-1.3.7-2.1,0-.7-.2-1.3-.5-1.9-.4-.5-.9-.9-1.5-1.1-.7-.2-2.1-.4-4.4-.4h-4ZM7.2,6.8v5.7h3.2c1.9,0,3.1,0,3.6,0,.7,0,1.5-.4,2-.9.5-.5.8-1.2.7-1.9,0-.7-.2-1.3-.6-1.8-.5-.5-1.2-.8-1.9-.9-.5,0-1.9,0-4.2,0h-2.8ZM2.3,2.7h9.8c1.5,0,2.9,0,4.3.2.9.1,1.8.5,2.6,1,.8.5,1.4,1.2,1.9,2,.5.9.8,1.9.8,2.9,0,2.3-1.3,4.4-3.4,5.3,1.4.3,2.6,1.1,3.4,2.2.8,1.1,1.2,2.4,1.2,3.7,0,1.1-.3,2.2-.8,3.3-.5,1-1.2,1.9-2.1,2.5-1,.7-2.1,1.1-3.3,1.2-.8,0-2.8.1-6,.2H2.3V2.7Z"/>
        <path class="st2" d="M37.7,18.2v-4.1h10.7v9.8c-1.3,1.2-2.8,2.1-4.5,2.6-1.9.8-3.9,1.1-6,1.1-2.3,0-4.6-.5-6.7-1.6-1.9-1-3.4-2.7-4.3-4.6-1-2-1.5-4.3-1.4-6.5,0-2.4.5-4.7,1.6-6.8,1.1-2,2.7-3.6,4.7-4.6,1.8-.9,3.8-1.3,5.9-1.2,3,0,5.4.6,7.1,1.9,1.7,1.3,2.9,3.2,3.3,5.3l-4.9.9c-.3-1.1-1-2.2-2-2.9-1-.7-2.3-1.1-3.6-1-1.9,0-3.8.7-5.2,2.1-1.3,1.4-1.9,3.4-1.9,6.1,0,2.9.6,5.1,1.9,6.5,1.3,1.5,3.1,2.3,5.1,2.2,1.1,0,2.1-.2,3.1-.6,1-.4,1.9-.9,2.7-1.5v-3.1h-5.7Z"/>
        <rect class="st2" x="52.8" y="2.7" width="4.9" height="24.5"/>
        <path class="st2" d="M61.2,19.3l4.8-.5c.3,1.6.9,2.8,1.8,3.6,1,.8,2.3,1.2,3.6,1.1,1.6,0,2.8-.3,3.6-1,.7-.6,1.2-1.4,1.2-2.4,0-.5-.2-1.1-.5-1.5-.5-.5-1.1-.9-1.8-1.1-.6-.2-1.9-.6-4-1.1-2.7-.7-4.5-1.5-5.6-2.4-1.4-1.2-2.3-3-2.3-4.9,0-1.2.4-2.5,1.1-3.5.7-1.1,1.8-2,3.1-2.5,1.5-.6,3.2-.9,4.8-.9,3.1,0,5.4.7,6.9,2,1.6,1.4,2.5,3.3,2.4,5.4l-4.9.2c0-1-.6-2-1.4-2.7-.7-.6-1.7-.8-3.1-.8-1.2,0-2.4.2-3.4.9-.5.3-.8.9-.8,1.5,0,.6.3,1.1.7,1.5.6.5,2.1,1.1,4.5,1.6,1.8.4,3.6,1,5.3,1.8,1.1.6,2,1.4,2.7,2.5,1.4,2.5,1.3,5.5-.2,7.9-.8,1.2-1.9,2.2-3.3,2.7-1.7.6-3.5,1-5.3.9-3.1,0-5.5-.7-7.1-2.1-1.7-1.4-2.7-3.5-3-6.3"/>
        <path class="st2" d="M94.6,14.3c-5.4,2.8-8.9,7.7-8.9,13.3h7.8c2.1-5.7,7.6-9.9,14.2-10.6-.7,0-1.5.1-2.2.1-3.8,0-7.6-1-10.9-2.8Z"/>
        <path class="st4" d="M107.7,12.1c-6-.9-11-4.7-13.2-9.8h-8.1c.4,5,3.5,9.4,8.2,12.1,3.2-1.6,6.7-2.5,10.2-2.4,1,0,1.9,0,2.9.2Z"/>
        <path class="st0" d="M104.8,11.9c-3.6,0-7.1.8-10.2,2.4,3.3,1.9,7.1,2.9,10.9,2.8.7,0,1.5,0,2.2-.1v-4.9h0c-1-.1-1.9-.2-2.9-.2Z"/>
        <path class="st3" d="M104.8,11.9c-3.6,0-7.1.8-10.2,2.4,3.3,1.9,7.1,2.9,10.9,2.8.7,0,1.5,0,2.2-.1v-4.9h0c-1-.1-1.9-.2-2.9-.2Z"/>
      </g>
    </g>
  </g>
</svg>