<?xml version="1.0" encoding="UTF-8"?>
<svg id="Layer_1" xmlns="http://www.w3.org/2000/svg" version="1.1" viewBox="0 0 94 50">
  <!-- Generator: Adobe Illustrator 29.5.0, SVG Export Plug-In . SVG Version: 2.1.0 Build 137)  -->
  <defs>
    <style>
      .st0, .st1 {
        fill: none;
      }

      .st1 {
        stroke: #ec2024;
        stroke-linecap: round;
        stroke-linejoin: round;
      }

      .st2 {
        fill: #ec2024;
      }
    </style>
  </defs>
  <path class="st0" d="M51.4,21.9c.3,0,.9-.2,1.8-1.2h0s.2-.2.2-.2c.6-.7,1.2-1.6,1.9-2.7.8-1.3,1.1-2,1.2-2.3,0,0,.3-2.4.4-2.7-.5-.3-1-.4-1.7-.4s-.9.1-1.3.4c-.2.1-.3.3-.5.4-.7.7-1.2,1.4-1.7,2.3-.5,1-.8,1.9-1,2.8-.2.8-.2,1.5-.2,1.9,0,.8.2,1.1.3,1.3.2.2.4.3.7.3Z"/>
  <path class="st0" d="M87.8,15c.6-.5.9-1.1,1-1.7,0-.1,0-.2,0-.3,0-.2,0-.4-.1-.5-.1-.1-.2-.2-.5-.2-.5,0-1,.2-1.5.5,0,0-.1,0-.1,0,0,0,0,0,0,0-.6.5-1.1,1.1-1.5,1.9-.3.5-.5,1-.7,1.5,0,0,0,.1,0,.2.5-.1,1-.3,1.5-.4.2,0,.4-.1.5-.2.5-.2.9-.5,1.4-.9Z"/>
  <path class="st0" d="M24.8,21c.4.9,1,1.4,2.1,1.4s.4,0,.6,0c.7-.2,1.3-.6,1.8-1.3.7-.9,1.2-2.1,1.4-3.7.1-.8.1-1.6,0-2.3-.1-.7-.4-1.3-.7-1.8-.4-.4-.8-.7-1.5-.7s-.6,0-.8.1c-.6.2-1.2.6-1.7,1.2-.7.9-1.2,2.2-1.5,3.7-.2,1.4-.1,2.6.3,3.5h0Z"/>
  <path class="st0" d="M92.8,11.1c0-.1,0-.1-.2-.1h-.2v.3h.2c.1,0,.2,0,.2-.1Z"/>
  <path class="st0" d="M40,22.4c.2,0,.4,0,.7,0,.7-.2,1.3-.6,1.8-1.3.7-1,1.2-2.2,1.4-3.7,0-.4,0-.8,0-1.2s0-.8,0-1.2c-.1-.8-.4-1.4-.7-1.8-.4-.4-.8-.6-1.5-.6s-.5,0-.8.1c-.6.2-1.2.6-1.7,1.2-.8.9-1.3,2.2-1.5,3.7-.2,1.4-.1,2.6.3,3.6.4.9,1,1.4,2.1,1.4Z"/>
  <polygon class="st0" points="72.9 7.1 72.9 7.1 72.9 7.1 72.9 7.1"/>
  <polygon class="st0" points="74.4 6.5 74.4 6.5 74.4 6.5 74.4 6.5"/>
  <path class="st0" d="M92.6,11.9c.3,0,.6-.3.6-.6s-.3-.6-.6-.6-.6.3-.6.6.3.6.6.6ZM92.3,10.8h.3c.2,0,.3,0,.3.2s0,.2-.2.2l.2.4h-.1l-.2-.4h-.1v.4h-.1v-.9Z"/>
  <path class="st2" d="M93.5,47H.5c-.3,0-.5.2-.5.5s.2.5.5.5h92.9c.3,0,.5-.2.5-.5s-.2-.5-.5-.5Z"/>
  <path class="st2" d="M86,29.2c.3,0,.5,0,.8,0,1.1,0,2.1.3,3.2.8l.8-1.7c-1.2-.7-2.7-1-4.1-.9-.2,0-.4,0-.6,0-.8.1-1.6.3-2.3.8-.6.4-1,.9-1.3,1.6-.1.4-.2.8-.3,1.3,0,.6,0,1.1.3,1.6.3.7.8,1.3,1.3,1.8.5.5,1.2,1,1.7,1.5.2.2.4.3.5.5.7.7,1.4,1.4,1.4,2.4,0,1-.6,1.8-1.4,2.1-.3.1-.6.2-.9.3-.4,0-.9,0-1.4,0-.4,0-.9-.1-1.3-.3-.6-.2-1.1-.4-1.6-.6l-.9,1.7c.8.5,1.6.8,2.5.9.4,0,.9.1,1.3.2.5,0,1,0,1.5,0,.3,0,.6,0,.8-.2,1.9-.6,3.5-2.1,3.6-4.3,0-2.3-2-3.7-3.6-5-.9-.7-2-1.8-1.7-3,.2-.9.9-1.3,1.7-1.5Z"/>
  <path class="st2" d="M73.7,29.1c1.1,0,2.1.3,3.2.8l.8-1.7c-1.2-.7-2.8-1-4.1-.9-.9,0-1.8.2-2.6.6-1.1.6-1.8,1.6-1.9,3.1,0,1.6.8,2.7,1.9,3.7.5.4,1,.8,1.4,1.2.8.8,2,1.7,2,2.9,0,1.4-1,2.2-2.3,2.4-.3,0-.7,0-1.1,0-1.1,0-2.3-.5-3.2-.9l-.9,1.7c1.3.7,2.7,1.1,4.1,1.1.4,0,.8,0,1.2,0,2.3-.3,4.3-2,4.4-4.5,0-2.3-2-3.7-3.6-5-.9-.7-2-1.8-1.7-3,.2-1.1,1.5-1.6,2.5-1.6Z"/>
  <polygon class="st2" points="49.3 38.1 42.8 27.8 40.9 27.8 38.8 42.8 40.8 42.8 42.4 31.7 49.3 42.7 49.4 42.8 50.9 42.8 53 27.8 50.9 27.8 49.5 38.4 49.3 38.1"/>
  <polygon class="st2" points="65.2 29.6 65.5 27.7 57.6 27.7 55.5 42.7 63.6 42.7 63.9 40.8 58 40.8 58.7 35.9 62.7 35.9 63 34 59 34 59.6 29.6 65.2 29.6"/>
  <polygon class="st2" points="17.7 42.8 20 42.8 21 35.3 22.1 27.8 19.8 27.8 17.7 42.8"/>
  <polygon class="st2" points="14.3 29.7 14.5 27.8 7.1 27.8 5 42.8 7.3 42.8 8.2 36 11.7 36 12 34.1 8.5 34.1 9.1 29.7 14.3 29.7"/>
  <polygon class="st2" points="30.6 42.8 32.5 29.7 36.7 29.7 37.1 27.8 26.1 27.8 25.9 29.7 30.2 29.7 28.4 42.8 30.6 42.8"/>
  <path class="st2" d="M7.3,22.9c1.4,1.1,3.1,1.6,5.2,1.6s1.8,0,2.5-.1c.8,0,1.4-.2,1.9-.4.6-.2,1-.3,1.2-.4h0s.7-.3.7-.3l1-.4v-.2s1.2-8,1.2-8h-5l-.4,2.4s1.2,0,1.7,0c0,.6-.5,3.7-.5,4.1-.3,0-1,.3-1,.3-.4.1-.7.2-1.2.3-.4,0-.9.1-1.5.1-1,0-1.9-.2-2.6-.6-.8-.4-1.5-1-2.1-1.7-.6-.7-1-1.6-1.3-2.6-.3-1-.4-2.1-.3-3.2.1-1.5.6-3,1.4-4.2.8-1.3,1.8-2.2,3-2.9,1.2-.7,2.3-1,3.6-1s2.4,0,3.1.3c.7.2,1.5.5,2.4.8h.3c0,.1.7-1.6.7-1.6,0,0,.2-.4.2-.4v-.3c.1,0-.2-.1-.2-.1h-.1s0,0,0,0h0c-.8-.3-1.6-.6-2.4-.8-1-.2-2.2-.4-3.6-.4s-3,.3-4.4.7c-1.4.5-2.6,1.3-3.6,2.2-1,.9-1.9,2.1-2.5,3.4-.6,1.4-1,2.8-1.2,4.4-.2,1.7,0,3.4.7,5.1.6,1.7,1.7,3.1,3.1,4.1Z"/>
  <polygon class="st2" points="73.2 16.1 74 10.6 70.9 10.6 69 24.2 72.1 24.2 73.2 16.1"/>
  <path class="st2" d="M83.8,12.2c-.5.4-.9.9-1.3,1.4,0,0-.1.1-.1.1h0c-.7,1-1.2,2.2-1.5,3.4-.1.7-.2,1.3-.2,1.9s0,1.1.2,1.7c.2,1.1.7,2,1.5,2.7h0s0,0,0,0c.5.4.9.6,1.5.8.5.2,1.1.2,1.7.2s.6,0,.9,0c.9-.1,1.7-.5,2.4-1,.9-.6,1.7-1.3,2.2-2l.2-.2-1.4-1.4-.2.3c-.2.2-.5.5-.8.8-.4.3-.9.6-1.4.9-.4.2-.7.3-1.1.4-.2,0-.4,0-.6,0-.7,0-1.2-.2-1.5-.7h0c0-.1-.1-.2-.2-.3-.2-.5-.3-1.1-.3-1.6s0-.6,0-.9c0,0,.1,0,.1,0h0c.7-.1,1.5-.3,2.5-.6,0,0,.3,0,.3,0,1.2-.4,2.3-.9,3.3-1.7,1-.8,1.5-1.8,1.6-3,0-.9-.2-1.6-.8-2.2-.6-.6-1.5-.9-2.6-.9s-1.2.1-1.9.4c-.3.1-.6.3-1.1.5-.5.3-1,.6-1.5,1.1ZM84.3,16.5c0,0,0-.1,0-.2.2-.5.4-1,.7-1.5.4-.7.9-1.4,1.5-1.9,0,0,0,0,0,0,0,0,0,0,.1,0,.5-.3,1-.5,1.5-.5s.4,0,.5.2c0,.1.1.3.1.5s0,.2,0,.3c-.1.7-.5,1.2-1,1.7-.5.4-1,.7-1.4.9-.2,0-.4.2-.5.2-.5.2-1,.3-1.5.4Z"/>
  <polygon class="st2" points="74.4 6.5 74.4 6.5 74.4 6.5 74.4 6.5"/>
  <polygon class="st2" points="74.4 6.5 74.4 6.5 74.4 6.5 74.4 6.5"/>
  <path class="st2" d="M75,5.3s0,0,0,0c0,0,0,0,0,0h0Z"/>
  <polygon class="st2" points="74.7 4 74.7 4 74.7 4 74.7 4"/>
  <path class="st2" d="M71.9,6.5h0c.3.3.6.5,1,.6h0c0,0,.2,0,.2,0,.5,0,1-.2,1.3-.5h0c.4-.3.6-.8.6-1.2,0-.1,0-.2,0-.3,0-.4-.1-.7-.4-1-.3-.4-.7-.6-1.2-.6s-.5,0-.7.2c-.2.1-.4.2-.5.4-.4.3-.6.7-.7,1.2,0,0,0,.2,0,.3,0,.4.1.7.3,1h0Z"/>
  <path class="st2" d="M72.9,7.1h0s0,0,0,0c0,0,0,0,0,0Z"/>
  <path class="st2" d="M72.8,7.1s0,0,0,0c0,0,0,0,0,0h0Z"/>
  <path class="st2" d="M74.4,12.8h2.5c0,.6-.9,6.6-.9,6.6-.2,1.7-.6,3.1-1,4.4v.4c-.1,0,2.9,0,2.9,0v-.2c.5-1.3.8-2.8,1-4.4,0,0,.8-5.5.9-6.8h2.6l.6-2.2h-2.9c0-.6.5-3.1.5-3.1.2-.9.5-1.7,1.1-2.3.5-.6,1.2-.9,2.1-.9,0,0,.4,0,.4,0,.4,0,.8,0,1.1.2h.3c0,.1.3-1.1.3-1.1,0,0,.2-1.1.2-1.1h-.3c0,0,0-.1,0-.1h0c-.5-.2-1-.2-1.5-.3,0,0-.5,0-.5,0-1.4,0-2.5.3-3.4.9-.9.6-1.6,1.4-2,2.4-.4,1-.8,2.2-1,3.6,0,0-.2,1.3-.3,1.8h-2.2l-.6,2.2Z"/>
  <path class="st1" d="M21.3,20.3s0,0,0,0"/>
  <path class="st2" d="M21.2,17.4c0,.4,0,.8,0,1.2,0,.6,0,1.1.2,1.7,0,0,0,0,0,0,0,.2,0,.4.2.7.4,1.1,1,2,1.9,2.6.9.6,2,1,3.3,1s.6,0,1,0c.9-.1,1.8-.4,2.6-.9,1-.6,1.9-1.5,2.6-2.7.7-1.1,1.1-2.3,1.2-3.6,0-.3,0-.7,0-1,0-.5,0-1.1-.2-1.6h0c-.2-.9-.5-1.6-1-2.3-.5-.7-1.1-1.2-1.8-1.6-.7-.4-1.6-.6-2.5-.6s-.6,0-1,0c-.7,0-1.3.3-1.8.5-.8.4-1.6.9-2.2,1.6-.7.7-1.2,1.5-1.5,2.3-.3.7-.5,1.4-.7,2.1,0,0,0,.5,0,.5ZM24.5,17.5c.2-1.6.7-2.8,1.5-3.7.5-.6,1.1-1,1.7-1.2.2,0,.5-.1.8-.1.6,0,1.1.2,1.5.7.4.5.6,1.1.7,1.8.1.8.1,1.6,0,2.3-.2,1.6-.7,2.8-1.4,3.7-.5.7-1.1,1.2-1.8,1.3-.2,0-.4,0-.6,0-1.1,0-1.8-.4-2.1-1.4h0c-.4-1-.5-2.2-.3-3.5ZM24.2,21.2s0,0,0,0c0,0,0,0,0,0Z"/>
  <path class="st1" d="M24.2,21.2s0,0,0,0"/>
  <line class="st1" x1="45.9" y1="20.9" x2="45.9" y2="20.9"/>
  <path class="st2" d="M36.5,23.5c.9.6,2,1,3.3,1s.6,0,1,0c.9-.1,1.8-.4,2.6-.9,1.1-.7,1.9-1.5,2.6-2.7h0c.6-1.1,1.1-2.3,1.2-3.5h0c0-.4,0-.7,0-1,0-.6,0-1.1-.2-1.6-.2-.8-.5-1.6-1-2.3-.5-.7-1.1-1.2-1.8-1.6-.7-.4-1.6-.6-2.5-.6s-.6,0-1,0c-.6,0-1.3.3-1.8.5-.9.4-1.6.9-2.2,1.6-.6.7-1.2,1.4-1.5,2.3-.4.8-.6,1.7-.8,2.6-.2,1.3-.1,2.5.3,3.6.4,1.1,1,2,1.9,2.6ZM37.6,17.5c.2-1.6.8-2.8,1.5-3.7.5-.6,1.1-1,1.7-1.2.3,0,.5-.1.8-.1.7,0,1.1.2,1.5.6.4.5.6,1.1.7,1.8,0,.4,0,.8,0,1.2s0,.8,0,1.2c-.2,1.5-.7,2.8-1.4,3.7-.5.7-1.1,1.2-1.8,1.3-.2,0-.4,0-.7,0-1.1,0-1.7-.4-2.1-1.4-.4-1-.5-2.1-.3-3.6Z"/>
  <path class="st2" d="M50.5,24.5c1.2,0,2.4-.5,3.4-1.5,0,0,.3-.3.3-.3.6-.7,1.2-1.4,1.7-2.1-.2,1.5-.5,3.6-.5,3.6h3.1l3-22h-3.1s-1,7.5-1.1,8.1c-.5,0-1.1,0-1.8,0s-1.2.1-1.9.4c-.2,0-.5.2-.7.3-.8.4-1.6,1-2.4,1.8-.8.8-1.4,1.6-1.9,2.6-.5,1-.9,2-1.1,3.2-.3,1.7-.2,3,.2,4.1.5,1.2,1.4,1.8,2.9,1.8ZM50.4,20.3c0-.5,0-1.1.2-1.9.2-.9.5-1.9,1-2.8.4-.9,1-1.7,1.7-2.3.2-.2.3-.3.5-.4.4-.3.9-.4,1.3-.4.7,0,1.3.1,1.7.4,0,.3-.4,2.7-.4,2.7-.1.3-.5,1-1.2,2.3-.7,1.1-1.3,2-1.9,2.7,0,0-.2.2-.2.2h0c-.9,1-1.5,1.2-1.8,1.2s-.5,0-.7-.3c-.2-.2-.3-.6-.3-1.3ZM53.7,21.1s0,0,0,0,0,0,0,0c0,0,0,0,0,0,0,0,0,0,0,0Z"/>
  <polyline class="st1" points="53.7 21.1 53.7 21.2 53.7 21.2"/>
  <path class="st2" d="M68.1,24.2l.4-2.7h-5.2c0-.7,2.7-19.3,2.7-19.3h-3.2l-3.1,22h8.4Z"/>
  <path class="st2" d="M92.6,12c.4,0,.7-.3.7-.7s-.3-.7-.7-.7-.8.3-.8.7.3.7.8.7ZM92.6,10.6c.3,0,.6.3.6.6s-.3.6-.6.6-.6-.3-.6-.6.3-.6.6-.6Z"/>
  <path class="st2" d="M92.4,11.3h.1l.2.4h.1l-.2-.4c.1,0,.2,0,.2-.2s0-.2-.3-.2h-.3v.9h.1v-.4ZM92.4,10.9h.2c0,0,.2,0,.2.1s0,.1-.2.1h-.2v-.3Z"/>
</svg>