<?xml version="1.0" encoding="UTF-8"?>
<svg id="Layer_1" xmlns="http://www.w3.org/2000/svg" version="1.1" viewBox="0 0 94 50">
  <!-- Generator: Adobe Illustrator 29.5.0, SVG Export Plug-In . SVG Version: 2.1.0 Build 137)  -->
  <defs>
    <style>
      .st0 {
        fill-rule: evenodd;
      }

      .st0, .st1 {
        fill: #0f5b66;
      }
    </style>
  </defs>
  <path class="st0" d="M87.7,13.5c.2,2.9-.8,5.7-3.1,7.9-4.2,4-11,3.4-15.3-1-4.2-4.4-4.2-11.3-.2-15.1,1.9-1.9,4.4-2.7,7-2.7-4.1-1-8.1-.2-11,2.7-4.8,4.6-4.4,13,1,18.6,5.4,5.6,13.7,6.5,18.7,1.9,3.3-3.1,4.2-7.7,2.9-12.3Z"/>
  <path class="st0" d="M69.3,9.7s1,0,1.9-.6c2.5-1.5,7-4.4,9.3-5.7,2.9-1.9,5.8,1.5,5.8,1.5,0,0-1,0-1.9.6-2.7,1.7-7.9,5-10.2,6.3-2.1,1.1-4.4-1.5-4.4-1.5l-.4-.6Z"/>
  <path class="st0" d="M74.9,16s1,0,1.9-.6c2.5-1.5,7-4.4,9.3-5.7,2.9-1.9,5.8,1.5,5.8,1.5,0,0-1,0-1.9.6-2.7,1.7-7.9,5-10.2,6.3-2.1,1.1-4.4-1.5-4.4-1.5l-.4-.6Z"/>
  <path class="st1" d="M4.2,12.4v10.5c1-1.1,1.9-1.7,3.5-1.7s2.7.6,3.5,1.7c.6.8.8,1.5.8,3.3v7.5h-2.1v-7.3c0-2.1-.8-3.1-2.5-3.1s-3.1,1.3-3.1,4.4v5.9h-2.1V12.6h2.1v-.2Z"/>
  <path class="st1" d="M12.9,21.4h2.5l4.2,8.6,3.9-8.6h2.3l-8.9,18.8h-2.3l3.9-7.9-5.6-10.9Z"/>
  <path class="st1" d="M38.8,33.4h-2.1v-1.7c-1,1.3-2.5,1.9-4.2,1.9-3.3,0-5.8-2.7-5.8-6.3s2.5-6.3,5.8-6.3,3.1.6,4.2,1.9v-10.7h2.1v21.3ZM28.9,27.3c0,2.7,1.7,4.6,3.9,4.6s4.1-1.7,4.1-4.6-1.5-4.2-4.1-4.2-3.9,1.7-3.9,4.2Z"/>
  <path class="st1" d="M44.2,21.4v1.3c1.2-1.3,1.5-1.5,2.7-1.5s1.2.2,1.7.6l-1,1.9c-.6-.4-.8-.4-1.2-.4-1.7,0-2.3,1.1-2.3,4v6.3h-2.1v-12.1h2.1v-.2Z"/>
  <path class="st1" d="M61.6,27.5c0,3.6-2.7,6.3-6.4,6.3s-6.4-2.9-6.4-6.3,2.9-6.3,6.4-6.3,6.4,2.7,6.4,6.3ZM51,27.5c0,2.5,1.7,4.4,4.2,4.4s4.2-1.9,4.2-4.4-1.7-4.4-4.2-4.4-4.2,1.7-4.2,4.4Z"/>
  <path class="st1" d="M61.8,41.3c0,3.8-2.7,6.5-6.6,6.5s-6.6-2.7-6.6-6.5,2.7-6.7,6.6-6.7c4.1.2,6.6,2.9,6.6,6.7ZM52.3,41.3c0,1.7,1.2,3.4,2.9,3.4s2.9-1.7,2.9-3.4-1.2-3.4-2.9-3.4-2.9,1.7-2.9,3.4Z"/>
  <path class="st1" d="M67.2,36.3c.8-1.1,2.1-1.5,3.3-1.5,3.3,0,4.2,2.3,4.2,5.2v7.7h-3.7v-6.7c0-1.5,0-3.4-1.9-3.4s-2.1,2.3-2.1,3.8v6.1h-3.7v-12.3h3.7v1.1h.2Z"/>
  <path class="st1" d="M80.1,41.9c0,1.5.6,3.3,2.5,3.3s1.9-.8,2.3-1.7l3.3.6c-.8,2.5-3.1,3.8-5.6,3.8-3.9,0-6.2-2.7-6.2-6.5s1.9-6.7,6-6.7,6,3.1,6,6.7v.4h-8.3v.2ZM85.2,39.7c-.2-1.3-1-2.5-2.3-2.5s-2.1,1.1-2.3,2.5h4.6Z"/>
</svg>