<?xml version="1.0" encoding="UTF-8"?>
<svg id="Layer_1" xmlns="http://www.w3.org/2000/svg" version="1.1" viewBox="0 0 110 30">
  <!-- Generator: Adobe Illustrator 29.5.0, SVG Export Plug-In . SVG Version: 2.1.0 Build 137)  -->
  <defs>
    <style>
      .st0 {
        fill: #c1d72f;
      }

      .st0, .st1, .st2 {
        fill-rule: evenodd;
      }

      .st1 {
        fill: #217fc3;
      }

      .st2 {
        fill: #eb7124;
      }
    </style>
  </defs>
  <path class="st1" d="M1.5,27.5V9.9h4.3v14.2h6v3.4H1.5Z"/>
  <path class="st1" d="M31.7,11.9c-1.2,0-1.5.3-1.5,1v2.6h2.7v2.7h-2.7v8.9h-4.1v-8.9h-1.9v-2.7h1.9v-3.1c0-2.4,1.5-3.4,4.5-3.4s1.9.2,2.6.3v2.7c-.3,0-.7-.2-1.4-.2Z"/>
  <path class="st1" d="M45.9,19.5c0-1.2-.2-1.7-.5-2.2s-1-.9-1.9-.9c-1.7,0-2.6,1-2.6,2.9h5v.2ZM50.2,26.1c-1.9,1.2-3.9,1.9-6.3,1.9-4.8,0-7.9-2.7-7.9-6.9s.7-3.9,2.1-5.3c1.4-1.2,3.1-1.7,5.3-1.7s3.8.5,4.8,1.4c1.5,1.2,2.2,3.1,2.2,5.8v.9h-9.8c0,2.1,1.2,3.3,3.6,3.3s2.9-.5,4.3-1.4l1.7,2.1Z"/>
  <path class="st2" d="M22.8,7.3c-1.4.9-8.1,4.8-14.4,3.1,9.1,3.4,9.1,11.7,5.8,18.7,5.7-6.3,5.3-14.1,4.8-15.9,1.4-1,2.9-3.1,3.8-5.8Z"/>
  <path class="st2" d="M17.3,4.5c0,1.9-1.5,3.6-3.4,3.6s-3.4-1.5-3.4-3.6,1.5-3.6,3.4-3.6c1.9.2,3.4,1.7,3.4,3.6Z"/>
  <path class="st0" d="M54.8,27.5V10h2.6v14.9h6.2v2.6h-8.7Z"/>
  <path class="st0" d="M74.5,21.9c-.7-.3-1.5-.5-2.9-.5s-2.7.7-2.7,1.9.9,2.2,2.6,2.2,2.6-.9,3.1-1.7v-1.9ZM74.5,26.1c-.9.9-2.2,1.5-3.6,1.5-2.1,0-4.5-1.2-4.5-4.5s2.2-4.3,5.1-4.3,2.2.2,2.9.5v-1c0-1.4-.9-2.2-2.4-2.2s-2.4.2-3.4.9l-1.2-1.7c1.2-.9,2.6-1.2,4.5-1.2,2.9,0,5,1.4,5,4.5v9.1h-2.4v-1.5Z"/>
  <path class="st0" d="M86.2,16.5c-1.2,0-2.2.9-2.9,1.7v5.5c.5.9,1.7,1.7,3.1,1.7s2.9-1.4,2.9-4.1c-.2-3.4-1.2-4.8-3.1-4.8ZM86.6,27.9c-1.4,0-2.6-.7-3.3-1.5v1.2h-2.6V10.5l2.6-1.4v6.3c1-.9,2.1-1.5,3.4-1.5,2.7,0,5,2.1,5,7s-2.4,6.9-5.1,6.9Z"/>
  <path class="st0" d="M99.1,27.9c-1.7,0-3.6-.7-5-1.7l1.2-1.9c1.2.9,2.6,1.4,3.8,1.4s2.4-.5,2.4-1.4-1.2-1.5-3.1-2.2c-2.7-1-3.8-2.1-3.8-4.1s1.9-3.6,4.5-3.6,3.3.7,4.5,1.4l-1.2,2.1c-1-.7-2.1-1.2-3.4-1.2s-1.7.5-1.7,1.2.5,1.2,2.4,1.9c2.9,1.2,4.5,1.9,4.5,4.5s-2.4,3.8-5,3.8Z"/>
  <path class="st0" d="M106.6,16.9h-.3v.5h.3c.2,0,.3,0,.3-.2s-.2-.3-.3-.3ZM106.8,18.6l-.3-.7h-.2v.7h-.5v-2.2h1c.5,0,.9.2.9.7s-.2.5-.3.7l.5.9h-1ZM106.4,16c-.9,0-1.5.7-1.5,1.5s.7,1.5,1.5,1.5,1.5-.7,1.5-1.5c.2-.9-.5-1.5-1.5-1.5ZM106.4,19.6c-1.2,0-2.1-.9-2.1-2.1s.9-2.1,2.1-2.1,2.1.9,2.1,2.1-.9,2.1-2.1,2.1Z"/>
</svg>