<?xml version="1.0" encoding="UTF-8"?>
<svg id="Layer_1" xmlns="http://www.w3.org/2000/svg" version="1.1" viewBox="0 0 185 30">
  <!-- Generator: Adobe Illustrator 29.5.0, SVG Export Plug-In . SVG Version: 2.1.0 Build 137)  -->
  <defs>
    <style>
      .st0 {
        fill: #01215c;
      }

      .st1 {
        fill: #4dc3df;
      }
    </style>
  </defs>
  <path class="st1" d="M15.3,27.5H1L44.4,2.5h1.8L15.3,27.5Z"/>
  <path class="st1" d="M34.4,27.5h-13.7L48.1,2.5h1.8l-15.6,25Z"/>
  <path class="st1" d="M52.9,27.5h-13.7L51.3,2.5h1.6v25Z"/>
  <path class="st0" d="M65.4,2.5v2.3h-2.3v8.2h-2.6V4.8h-2.3v-2.3h7.2Z"/>
  <path class="st0" d="M73.6,2.5c.7,0,1.2.5,1.2,1.2v8c0,.7-.5,1.2-1.2,1.2h-5.2c-.7,0-1.2-.5-1.2-1.2V3.7c0-.7.5-1.2,1.2-1.2h5.2ZM72.1,4.9c0,0,0-.2-.2-.2h-2c0,0-.1,0-.1.2v5.6c0,0,0,.1.1.1h2c0,0,.2,0,.2-.1v-5.6h0Z"/>
  <path class="st0" d="M83.9,2.5c.6,0,1.1.5,1.1,1.2v4.8c0,.6-.5,1.2-1.1,1.2h0l1.2,3.3h-2.5l-1.3-3.3h-1.1v3.3h-2.6V2.5h6.3ZM82.4,4.9c0,0,0-.2-.1-.2h-2.2v2.8h2.2c0,0,.1,0,.1-.1v-2.5Z"/>
  <path class="st0" d="M94,2.5c.7,0,1.2.5,1.2,1.2v8c0,.7-.5,1.2-1.2,1.2h-5.2c-.7,0-1.2-.5-1.2-1.2V3.7c0-.7.5-1.2,1.2-1.2h5.2ZM92.5,4.9c0,0,0-.2-.2-.2h-2c0,0-.1,0-.1.2v5.6c0,0,0,.1.1.1h2c0,0,.2,0,.2-.1v-5.6Z"/>
  <path class="st0" d="M100.3,7.2v5.8h-2.4V2.5h2.4l3,5.8V2.5h2.4v10.5h-2.5l-2.9-5.8Z"/>
  <path class="st0" d="M114.8,2.5v2.3h-2.3v8.2h-2.6V4.8h-2.3v-2.3h7.2Z"/>
  <path class="st0" d="M123,2.5c.7,0,1.2.5,1.2,1.2v8c0,.7-.5,1.2-1.2,1.2h-5.2c-.7,0-1.2-.5-1.2-1.2V3.7c0-.7.5-1.2,1.2-1.2h5.2ZM121.6,4.9c0,0,0-.2-.2-.2h-2c0,0-.1,0-.1.2v5.6c0,0,0,.1.1.1h2c0,0,.2,0,.2-.1v-5.6Z"/>
  <path class="st0" d="M136.8,2.5c.6,0,1.1.5,1.1,1.2v5.4c0,.6-.5,1.2-1.1,1.2h-3.6v2.7h-2.6V2.5h6.2ZM135.2,8c0,0,.1,0,.1-.1v-3c0,0,0-.2-.1-.2h-2v3.3h2Z"/>
  <path class="st0" d="M145.2,13v-2.6h-2.3v2.6h-2.6V3.7c0-.7.5-1.2,1.2-1.2h5.1c.7,0,1.2.5,1.2,1.2v9.2h-2.6ZM145.2,8.1v-3.1c0-.2-.1-.3-.4-.3h-1.6c-.2,0-.3.1-.3.3v3.1h2.3Z"/>
  <path class="st0" d="M152.6,7.2v5.8h-2.4V2.5h2.4l3,5.8V2.5h2.4v10.5h-2.5l-2.9-5.8Z"/>
  <path class="st0" d="M169.6,13v-2.6h-2.3v2.6h-2.6V3.7c0-.7.5-1.2,1.2-1.2h5.1c.7,0,1.2.5,1.2,1.2v9.2h-2.6ZM169.6,8.1v-3.1c0-.2-.1-.3-.4-.3h-1.6c-.2,0-.3.1-.3.3v3.1h2.3Z"/>
  <path class="st0" d="M177.1,7.1v5.9h-2.4V2.5h2.6l2,4.9,1.9-4.9h2.7v10.5h-2.5v-6l-1.7,4.2h-1l-1.7-4.1Z"/>
  <path class="st0" d="M62.7,25.2c.1,0,.2,0,.2-.1v-1.5c0,0,0-.1-.2-.1h-2.6c-.7,0-1.2-.5-1.2-1.2v-4c0-.7.5-1.2,1.2-1.2h5.2v2.3h-3.6c0,0-.1,0-.1.2v1.5c0,0,0,.1.1.1h2.6c.7,0,1.2.5,1.2,1.2v3.9c0,.7-.5,1.2-1.2,1.2h-5.4v-2.3h3.8Z"/>
  <path class="st0" d="M74.2,17c.6,0,1.1.5,1.1,1.2v5.4c0,.6-.5,1.2-1.1,1.2h-3.6v2.7h-2.6v-10.5h6.2ZM72.6,22.5c0,0,.1,0,.1-.1v-3c0,0,0-.2-.1-.2h-2v3.3h2Z"/>
  <path class="st0" d="M83.8,17c.7,0,1.2.5,1.2,1.2v8c0,.7-.5,1.2-1.2,1.2h-5.2c-.7,0-1.2-.5-1.2-1.2v-8c0-.7.5-1.2,1.2-1.2h5.2ZM82.4,19.5c0,0,0-.2-.2-.2h-2c0,0-.1,0-.1.2v5.6c0,0,0,.1.1.1h2c0,0,.2,0,.2-.1v-5.6Z"/>
  <path class="st0" d="M94.1,17c.6,0,1.1.5,1.1,1.2v4.8c0,.6-.5,1.2-1.1,1.2h0l1.2,3.3h-2.5l-1.3-3.3h-1.1v3.3h-2.6v-10.5h6.3ZM92.6,19.4c0,0,0-.2-.1-.2h-2.2v2.8h2.2c0,0,.1,0,.1-.1v-2.5Z"/>
  <path class="st0" d="M104.4,17v2.3h-2.3v8.2h-2.6v-8.2h-2.3v-2.3h7.2Z"/>
  <path class="st0" d="M109.9,25.2c.1,0,.2,0,.2-.1v-1.5c0,0,0-.1-.2-.1h-2.6c-.7,0-1.2-.5-1.2-1.2v-4c0-.7.5-1.2,1.2-1.2h5.2v2.3h-3.6c0,0-.1,0-.1.2v1.5c0,0,0,.1.1.1h2.6c.7,0,1.2.5,1.2,1.2v3.9c0,.7-.5,1.2-1.2,1.2h-5.4v-2.3h3.8Z"/>
  <path class="st0" d="M126.2,23.6v2.7c0,.7-.5,1.2-1.2,1.2h-5.1c-.6,0-1.2-.5-1.2-1.2v-8.1c0-.6.5-1.2,1.2-1.2h5.1c.6,0,1.2.5,1.2,1.2v2.7h-2.6v-1.5c0,0,0-.2-.1-.2h-1.9c0,0-.2,0-.2.2v5.6c0,0,0,.2.2.2h1.9c0,0,.1,0,.1-.2v-1.5h2.6Z"/>
  <path class="st0" d="M128.4,17h6.6v2.3h-4v1.8h3.5v2.2h-3.5v1.9h4v2.3h-6.6v-10.5Z"/>
  <path class="st0" d="M139.6,21.7v5.8h-2.4v-10.5h2.4l3,5.8v-5.8h2.4v10.5h-2.5l-2.9-5.8Z"/>
  <path class="st0" d="M153.8,17v2.3h-2.3v8.2h-2.6v-8.2h-2.3v-2.3h7.2Z"/>
  <path class="st0" d="M162.1,17c.6,0,1.1.5,1.1,1.2v4.8c0,.6-.5,1.2-1.1,1.2h0l1.2,3.3h-2.5l-1.3-3.3h-1.1v3.3h-2.6v-10.5h6.3ZM160.6,19.4c0,0,0-.2-.1-.2h-2.2v2.8h2.2c0,0,.1,0,.1-.1v-2.5Z"/>
  <path class="st0" d="M165.9,17h6.6v2.3h-4v1.8h3.5v2.2h-3.5v1.9h4v2.3h-6.6v-10.5Z"/>
</svg>