<?xml version="1.0" encoding="UTF-8"?>
<svg id="Layer_1" xmlns="http://www.w3.org/2000/svg" version="1.1" viewBox="0 0 129 30">
  <!-- Generator: Adobe Illustrator 29.5.0, SVG Export Plug-In . SVG Version: 2.1.0 Build 137)  -->
  <defs>
    <style>
      .st0 {
        fill: #eb0f19;
      }
    </style>
  </defs>
  <path class="st0" d="M12.6,20.5c.3-.7.4-1.5.4-2.2,0-1.1-.4-2.2-1.1-3-.8-.9-2.2-1.6-4.1-2.2-.4,0-.7-.2-1.1-.4-.3-.1-.6-.3-.8-.6-.2-.3-.4-.6-.3-1,0-.5.3-1,.8-1.2.9-.4,2-.4,3,0,.4.2.8.3,1.2.6l1.6-3.2c-.7-.4-1.5-.8-2.3-1-.8-.2-1.7-.3-2.5-.3-.8,0-1.6.1-2.4.4-.7.3-1.3.7-1.8,1.2-.5.5-.9,1.1-1.2,1.8-.3.7-.4,1.5-.4,2.2,0,1.2.6,2.3,1.4,3.2.8.7,1.8,1.3,2.8,1.6.5.2,1,.4,1.4.5.4.1.7.3,1,.5.2.2.4.4.5.6.1.2.2.5.1.8,0,.4-.2.8-.5,1-.5.4-1.1.5-1.7.5-.7,0-1.4-.2-2.1-.5-.6-.3-1.1-.6-1.7-.9l-1.9,3.3c1.5,1.2,3.4,1.9,5.3,1.9,1,0,1.9-.2,2.8-.4.8-.3,1.5-.7,2.2-1.2.6-.5,1-1.2,1.4-1.9h0ZM22.9,19.5c-1,1.2-2.7,1.4-3.9.4-1.2-1-1.4-2.7-.4-3.9,1-1.2,2.7-1.4,3.9-.4.2.1.3.3.4.4l2.5-2.5c-1.2-1.3-2.9-2.1-4.6-2.1-3.5,0-6.5,2.5-6.5,6.3s3,6.3,6.5,6.3c1.8,0,3.5-.7,4.7-2.1l-2.5-2.5ZM31.8,11.5c-3.5,0-6.3,2.8-6.3,6.3h0c0,3.5,2.8,6.3,6.3,6.3h0c3.5,0,6.3-2.8,6.3-6.3,0-3.5-2.8-6.3-6.3-6.3h0ZM31.8,20.5c-1.5,0-2.7-1.3-2.7-2.9,0-1.5,1.2-2.7,2.7-2.7,1.5,0,2.8,1.2,2.8,2.7,0,1.5-1.2,2.8-2.7,2.8,0,0,0,0-.1,0ZM46.1,11.7h-1.7v-3.7h-3.8v3.7h-1.7v3.4h1.7v8.6h3.8v-8.6h1.7v-3.4ZM49.7,5.9c-1.2,0-2.1.9-2.1,2.1,0,1.2.9,2.1,2.1,2.1h0c1.2,0,2.1-.9,2.1-2.1,0-1.2-.9-2.1-2.1-2.1h0s0,0,0,0ZM47.8,11.7h3.8v12h-3.8v-12ZM66.3,23.8v-12h-3.7v1.3l-.3-.3c-.9-.8-2-1.3-3.2-1.3-3.2,0-6,2.9-6,6.3s2.7,6.3,6,6.3c1.2,0,2.3-.5,3.2-1.3l.3-.3v1.3h3.7ZM59.7,20.6c-1.6,0-2.8-1.3-2.8-2.9h0c0-1.6,1.3-2.8,2.9-2.8,1.6,0,2.8,1.3,2.8,2.9,0,1.6-1.3,2.8-2.9,2.8,0,0,0,0,0,0ZM71.9,23.8v-1.3l.3.3c.9.8,2,1.3,3.2,1.3,3.2,0,6-2.9,6-6.3s-2.7-6.3-6-6.3c-1.2,0-2.3.5-3.2,1.3l-.3.3v-6.8h-3.7v17.5h3.7ZM72,17.8c0-1.6,1.3-2.8,2.8-2.9,1.6,0,2.8,1.3,2.9,2.8,0,1.6-1.3,2.8-2.8,2.9,0,0,0,0,0,0-1.6,0-2.8-1.3-2.8-2.8h0ZM95.9,23.8v-12h-3.7v1.3l-.3-.3c-.9-.8-2-1.3-3.2-1.3-3.2,0-6,2.9-6,6.3s2.7,6.3,6,6.3c1.2,0,2.3-.5,3.2-1.3l.3-.3v1.3h3.7ZM89.3,20.6c-1.6,0-2.8-1.3-2.8-2.8,0-1.6,1.3-2.8,2.8-2.8s2.8,1.3,2.8,2.8c0,1.6-1.3,2.8-2.8,2.8h0ZM103.7,15c1.2,0,2.2,1,2.2,2.2v6.5h3.8v-7c0-3.2-1.8-5.3-4.7-5.3s-2.5.5-3.5,2.2v-1.9h-3.8v12h3.7v-6.5c0-1.2,1-2.2,2.2-2.2,0,0,0,0,0,0h0ZM123.4,23.7l-4.6-6,4.3-6h-4.4l-3.5,4.9V6.2h-3.8v17.5h3.8v-4.9l3.8,4.9h4.4ZM126,19.6c-1.2,0-2.1.9-2.1,2.1s.9,2.1,2.1,2.1h0c1.2,0,2.1-.9,2.1-2.1,0-1.2-.9-2.1-2.1-2.1h0ZM126,23.3c-.9,0-1.7-.7-1.7-1.7,0-.9.7-1.7,1.7-1.7h0c.9,0,1.7.7,1.7,1.7,0,.9-.7,1.7-1.7,1.7Z"/>
  <path class="st0" d="M126,22h-.3v.8h-.4v-2.3h.9c.4,0,.8.3.8.8,0,.3-.2.5-.4.7l.5.9h-.5l-.4-.8ZM125.7,21.6h.5c.2,0,.3-.2.3-.3s-.2-.3-.3-.3h-.5v.7Z"/>
</svg>