<?xml version="1.0" encoding="UTF-8"?>
<svg id="Layer_1" xmlns="http://www.w3.org/2000/svg" version="1.1" viewBox="0 0 152 48">
  <!-- Generator: Adobe Illustrator 29.5.0, SVG Export Plug-In . SVG Version: 2.1.0 Build 137)  -->
  <defs>
    <style>
      .st0 {
        fill: #231f20;
      }

      .st1 {
        fill: #e21936;
      }
    </style>
  </defs>
  <path class="st0" d="M6.6,34.9c0,1.8-1.1,2.2-1.9,2.2s-1.9-.4-1.9-2.2v-3.2h.7v3.4c0,.7.3,1.5,1.3,1.5s1.3-.8,1.3-1.5v-3.4h.7v3.2Z"/>
  <path class="st0" d="M13.9,31.6h.9l2.1,3.7c.1.2.3.6.4.7h0c0-.2,0-.4,0-.7v-3.8h.7v5.3h-.9l-2.1-3.8c-.1-.2-.3-.6-.4-.7h0c0,.2,0,.4,0,.7v3.8h-.7v-5.3Z"/>
  <rect class="st0" x="25.5" y="31.6" width=".7" height="5.3"/>
  <path class="st0" d="M35.1,35.7c0,.2.1.4.2.7h0c0-.2.1-.4.2-.7l1.3-4h.7l-1.8,5.3h-.9l-1.8-5.3h.8l1.3,4Z"/>
  <polygon class="st0" points="44.4 31.6 47.6 31.6 47.6 32.2 45 32.2 45 33.9 47.4 33.9 47.4 34.5 45 34.5 45 36.4 47.6 36.4 47.6 37 44.4 37 44.4 31.6"/>
  <path class="st0" d="M55.5,34h1.1c.8,0,1-.5,1-.9,0-.9-.8-.9-1.1-.9h-1v1.8ZM54.8,31.6h1.8c.9,0,1.6.4,1.6,1.4s-.7,1.3-1,1.4l1.3,2.5h-.8l-1.1-2.4h-1.2v2.4h-.7v-5.3Z"/>
  <path class="st0" d="M65.9,35.7c0,.4.4.8,1.1.8s1-.5,1-.9-.4-.8-.6-.8l-1.3-.6c-.5-.2-.8-.6-.8-1.2,0-1,.9-1.5,1.7-1.5s1.4.3,1.6,1l-.7.2c-.1-.5-.6-.6-1-.6-.7,0-.9.4-.9.9s.4.7.7.8l1,.4c.3.1,1,.5,1,1.4s-.3,1.5-1.8,1.5-1.6-.7-1.7-1.1l.7-.2Z"/>
  <rect class="st0" x="75.9" y="31.6" width=".7" height="5.3"/>
  <polygon class="st0" points="85 32.2 83.5 32.2 83.5 31.6 87.3 31.6 87.3 32.2 85.7 32.2 85.7 37 85 37 85 32.2"/>
  <path class="st0" d="M95.8,30.2h.8l-1.1,1.1h-.5l.8-1.1ZM94.1,31.6h3.2v.6h-2.5v1.7h2.4v.6h-2.4v1.9h2.6v.6h-3.3v-5.3Z"/>
  <path class="st0" d="M6.6,45.3c0,1.8-1.1,2.2-1.9,2.2s-1.9-.4-1.9-2.2v-3.2h.7v3.4c0,.7.3,1.5,1.3,1.5s1.3-.8,1.3-1.5v-3.4h.7v3.2Z"/>
  <path class="st0" d="M13.9,42.1h.9l2.1,3.7c.1.2.3.6.4.7h0c0-.2,0-.4,0-.7v-3.8h.7v5.3h-.9l-2.1-3.8c-.1-.2-.3-.6-.4-.7h0c0,.2,0,.4,0,.7v3.8h-.7v-5.3Z"/>
  <rect class="st0" x="25.4" y="42.1" width=".7" height="5.3"/>
  <path class="st0" d="M34.9,46.1c0,.2.1.4.2.7h0c0-.2.1-.4.2-.7l1.3-4h.7l-1.8,5.3h-.9l-1.8-5.3h.8l1.3,4Z"/>
  <polygon class="st0" points="44.2 42.1 47.4 42.1 47.4 42.6 44.9 42.6 44.9 44.4 47.3 44.4 47.3 44.9 44.9 44.9 44.9 46.9 47.5 46.9 47.5 47.4 44.2 47.4 44.2 42.1"/>
  <path class="st0" d="M55.3,44.5h1.1c.8,0,1-.5,1-.9,0-.9-.8-.9-1.1-.9h-1v1.8ZM54.6,42.1h1.8c.9,0,1.6.5,1.6,1.4s-.7,1.3-1,1.4l1.3,2.5h-.8l-1.1-2.4h-1.2v2.4h-.7v-5.3Z"/>
  <path class="st0" d="M65.6,46.2c0,.4.4.8,1.1.8s1-.5,1-.9-.4-.8-.6-.8l-1.3-.6c-.5-.2-.8-.6-.8-1.2,0-1,.9-1.5,1.7-1.5s1.4.3,1.6,1l-.7.2c-.1-.5-.6-.6-1-.6-.7,0-.9.4-.9.9s.4.7.7.8l1,.4c.3.1,1,.5,1,1.4s-.3,1.5-1.8,1.5-1.6-.7-1.7-1.1l.7-.2Z"/>
  <rect class="st0" x="75.6" y="42.1" width=".7" height="5.3"/>
  <polygon class="st0" points="84.7 42.7 83.1 42.7 83.1 42.1 86.9 42.1 86.9 42.7 85.4 42.7 85.4 47.4 84.7 47.4 84.7 42.7"/>
  <path class="st0" d="M95.1,45.3l-1.9-3.2h.8l1.2,2.1c0,.1.1.3.2.4h0c0-.1.1-.3.2-.4l1.2-2.1h.8l-1.9,3.2v2.2h-.7v-2.2Z"/>
  <rect class="st0" x="2.7" y="39.1" width="94.9" height=".3"/>
  <path class="st0" d="M7.4,24.1h.7c1.5,0,1.9-.6,1.9-2.2v-4.9L4.1,6.4c-1.2-2.2-1.6-2.4-3.1-2.4h-.3v-.9c1.3,0,2.6,0,3.9,0s2.6,0,3.9,0v.9h-.6c-.6,0-1.1.2-1.1,1s.4,1.3.7,1.8l4.6,8.2,4.3-8.1c.2-.5.8-1.6.8-2.2s-.4-.7-1.2-.7h-.6v-.9c1.3,0,2.1,0,3.1,0s2.1,0,3.1,0v.9h-.8c-1.3,0-1.5.4-2.5,2.2l-5.5,10.2v5.5c0,1.8.7,2.2,1.9,2.2h.6v.9c-1.3,0-2.6,0-3.9,0s-2.8,0-3.9,0v-.9Z"/>
  <path class="st0" d="M35.1,3.9c-4.3,0-8.4,2.7-8.4,9.8s3.3,10.5,8.6,10.5,8.3-4.2,8.3-9.9-3.1-10.4-8.5-10.4M35.2,2.6c6.1,0,11.5,5,11.5,11.4s-4.2,11.4-11.6,11.4-11.5-5-11.5-11.1,5.5-11.6,11.6-11.6"/>
  <path class="st0" d="M56.9,13.6c.5.2,1.3.2,2.1.2,2.8,0,5.1-1.3,5.1-4.5s-.9-5.1-5.2-5.1-1.3,0-1.9.1v9.3ZM51.5,24.1h.6c1.4,0,2-.5,2-2.5V6.5c0-2-.6-2.5-2-2.5h-.6v-.9c1.1,0,2.6,0,4,0,2.1,0,3.5,0,4.9,0,5.5,0,6.5,4.3,6.5,5.7,0,4-2.8,5.3-4.4,5.8l4.1,6.9c1.7,2.8,2.2,3,4.7,3.1v.6c-.6,0-1.1,0-1.7,0-2.7,0-4-.3-5.6-3l-3.6-5.9c-.7-1.1-1.1-1.2-3.5-1.3v5.8c0,2.9.5,3.3,1.8,3.3h.9v.9c-1.4,0-2.7,0-4,0s-2.9,0-4,0v-.9Z"/>
  <path class="st0" d="M76.1,24.1h.6c1.4,0,2-.5,2-2.5V6.5c0-2-.6-2.5-2-2.5h-.6v-.9c1.1,0,2.6,0,3.9,0s2.7,0,4,0v.9h-.9c-1.2,0-1.8.3-1.8,3.3v7.3l6.8-7.5c.3-.3,1.5-1.6,1.5-2.2s-.4-.8-1-.8h-.6v-.9c1.1,0,2.4,0,3.6,0s2.4,0,3.7,0v.9h-.6c-1.5,0-2,.3-3.9,2.2l-6,6.3,8,9.3c1.7,2,2.6,2.3,3.9,2.3h.5v.9c-1,0-2,0-3,0s-2,0-3,0c-.2-.9-.2-1.4-2-3.4l-6.3-7.3-1.6,1.7v4.7c0,2.9.5,3.3,1.8,3.3h.9v.9c-1.4,0-2.7,0-4,0s-2.9,0-3.9,0v-.9Z"/>
  <path class="st1" d="M136.9,41.8c-8,0-14.9-4.9-14.9-15.7V.5h-17.8v47h47v-17.1c-1.4,6.8-6.4,11.5-14.3,11.5"/>
  <path class="st1" d="M136.9,32.1c4.3,0,5.6-3.8,5.6-7.4V.5h-10.9v24.3c0,3.8,1.4,7.4,5.3,7.4"/>
</svg>