<svg width="147" height="94" viewBox="0 0 147 94" fill="none" xmlns="http://www.w3.org/2000/svg">
<path fill-rule="evenodd" clip-rule="evenodd" d="M121.62 93.9949C129.754 94.0768 138.052 93.1774 147 91.0499V7.12264C130.568 11.1307 116.007 10.5588 101.528 8.59511L108.361 37.4703L120.4 34.7709L116.577 49.3319C116.496 49.5775 116.414 49.905 116.333 50.2313C117.716 50.8044 118.936 51.54 120.237 52.195L122.84 53.4218L113.892 61.1105L121.619 93.9937L121.62 93.9949Z" fill="#E74C3C"/>
<path d="M100.036 72.0182L101.646 77.6862L83.7706 75.4994C83.2868 75.4187 82.6426 75.7427 82.6426 76.2291L82.8621 87.38L82.8845 88.5369L79.5028 87.6458L79.5241 86.8781L79.825 76.2291C79.825 75.7427 79.1005 75.4994 78.6167 75.4994L60.741 77.6862L62.3516 72.0182C62.5934 71.209 62.2713 70.2372 61.6271 69.67L55.5246 64.4434L55.5682 64.2346L62.4436 38.0564L67.0217 43.4349C68.7125 45.3784 70.3231 44.4873 69.8393 41.9767L66.217 21.9767L71.4499 24.8113C72.4977 25.3784 73.7047 25.6205 74.349 24.3248L81.1937 11.2078L88.0384 24.3248C88.6826 25.6205 89.8896 25.3784 90.9362 24.8113L96.1703 21.9767L92.5468 41.9767C92.1445 44.4873 93.7551 45.3784 95.3656 43.4349L103.498 33.8799L104.948 39.1433C105.19 39.8718 105.833 40.3582 106.558 40.1957L117.267 37.7669L114.288 49.1836C113.886 50.9657 113.644 51.6943 114.932 52.1796C116.301 52.7467 117.67 53.5559 118.958 54.2038L100.76 69.67C100.116 70.2372 99.7939 71.209 100.036 72.0182Z" fill="#E74C3C"/>
<path fill-rule="evenodd" clip-rule="evenodd" d="M99.7892 11.3846C90.1563 10.1827 80.56 8.57494 70.572 7.10603L70.6676 6.73939L71.2717 4.43398C80.7016 5.8495 89.8224 7.39791 98.9432 8.56426L99.7892 11.3846Z" fill="#E74C3C"/>
<path fill-rule="evenodd" clip-rule="evenodd" d="M46.969 82.4773C47.5259 82.545 48.084 82.6138 48.6409 82.6814L48.11 85.2265L48.0675 85.3902C47.953 85.3843 47.8386 85.3772 47.7229 85.3689L46.969 82.4773Z" fill="#E74C3C"/>
<path fill-rule="evenodd" clip-rule="evenodd" d="M119.141 93.7576C96.2978 93.4467 75.1301 88.3981 51.1199 85.7308L51.6827 83.0089C61.2955 84.0696 70.4906 85.5113 79.5241 86.8781C80.6391 87.0466 81.7518 87.2151 82.8621 87.38C94.7344 89.1491 106.38 90.6857 118.385 90.9372L119.141 93.7576Z" fill="#E74C3C"/>
<path d="M5.61051 4.44466L7.23171 4.88605L7.75206 5.02843L7.85353 5.05572L8.17801 4.5206L8.30426 4.31059L8.80336 3.48477C7.76858 3.74699 6.64647 4.09583 5.61051 4.44466ZM0 23.569V28.022L1.64127 25.49L0 23.569ZM35.3031 0.00589196C34.7344 -4.0644e-05 34.1657 -0.00122716 33.5958 0.00114588C30.9917 0.0141976 28.3676 0.119798 25.7187 0.340491L22.4385 1.6516C22.4597 1.97907 22.4821 2.31367 22.5034 2.65065C22.5046 2.67793 22.5069 2.70404 22.5081 2.73133C22.5718 3.71139 22.6332 4.71282 22.6981 5.66678C22.0739 4.90978 21.4485 4.15278 20.8255 3.39341C20.7748 3.33408 20.7264 3.27357 20.6769 3.21424C20.5211 3.0244 20.3642 2.83337 20.2073 2.64353C20.1742 2.60318 20.1412 2.56403 20.1082 2.52369C19.8899 2.61861 19.668 2.70997 19.445 2.80015C18.435 3.20831 17.3873 3.57969 16.3985 4.00921L17.6575 1.99806L18.0374 1.38937C15.4487 1.82601 12.7738 2.43707 10.0989 3.13475L10.1626 5.02606L10.1839 5.66678C11.4782 6.1046 12.8599 6.45344 14.1531 6.80228C12.8599 7.23892 11.6505 7.76336 10.3561 8.19881C10.3774 8.53578 10.3986 8.86801 10.4187 9.19786C10.4222 9.24414 10.4246 9.28922 10.4269 9.3355C10.4918 10.3251 10.5532 11.2921 10.6157 12.3042C10.0022 11.4962 9.38624 10.732 8.77269 9.97978C8.71251 9.9074 8.65351 9.83384 8.59334 9.76146C8.43523 9.57043 8.27948 9.38059 8.12373 9.19074C8.09069 9.15159 8.05766 9.11243 8.0258 9.07328C7.78981 9.17651 7.55029 9.27499 7.30841 9.37109C6.31256 9.77095 5.27069 10.1364 4.22882 10.5564C5.00639 9.42211 5.69664 8.28662 6.47421 7.1523L5.22231 5.59677L4.57572 4.79469C3.02177 5.31794 1.55395 5.8412 0 6.45344V12.8274L2.58992 13.4397L3.1079 13.6141L0 14.8362V22.6067L2.93563 23.3934C3.05363 23.2202 3.17044 23.0469 3.28489 22.8737L3.31321 22.831C3.94328 21.8829 4.53088 20.9361 5.17866 19.9881C5.17866 21.1129 5.23411 22.1808 5.30137 23.2819C5.30373 23.3115 5.30491 23.34 5.30727 23.3697C5.32143 23.6082 5.33677 23.849 5.35092 24.0922L9.23521 25.1399C8.0258 25.5766 6.73261 26.101 5.52437 26.5365C5.52437 26.8841 5.52909 27.2258 5.53853 27.564C5.54207 27.6803 5.54561 27.7966 5.54915 27.9117C5.58219 28.8182 5.64001 29.7092 5.69664 30.6418C5.11022 29.9299 4.5651 29.218 4.00464 28.5073C3.91497 28.3946 3.82529 28.2807 3.73444 28.1679C3.59993 27.9983 3.46424 27.8286 3.32501 27.6589C3.28253 27.6055 3.23887 27.551 3.19404 27.4976L2.44479 27.7847L2.2914 27.8428L0 28.7197V42.3409C1.46782 42.6921 2.93563 43.1276 4.40227 43.4776L0 45.2242V72.2056L2.24538 68.7991L2.44833 71.966L2.50378 72.8167C3.79815 73.1655 5.09252 73.5144 6.38689 73.8644C5.09252 74.3888 3.88429 74.8255 2.58992 75.3487C2.61116 75.6774 2.63358 76.012 2.65481 76.349C2.71971 77.3551 2.78343 78.3838 2.8495 79.3663C2.66307 79.1408 2.47665 78.9142 2.2914 78.6888C1.61295 77.8665 0.936854 77.0443 0.259582 76.222L0 76.572V91.2422C0.766946 90.9372 1.53035 90.6441 2.2914 90.3653C2.5203 90.2811 2.74921 90.198 2.97693 90.1161C10.4788 87.4204 17.7401 85.8933 24.8573 85.2099C24.8703 85.2087 24.8821 85.2075 24.8951 85.2063C28.436 84.867 31.9415 84.7353 35.4235 84.7732C35.584 84.7744 35.7432 84.7768 35.9013 84.7792H36.7639L36.7544 84.7673L34.0029 81.3751L37.9733 82.4216L38.0559 82.2899L40.1302 79.0174L40.3744 82.9069L40.3886 83.1204L44.2729 84.1681L43.2345 85.0414C44.3956 85.1031 45.5578 85.2099 46.6882 85.2965C47.0362 85.3238 47.3819 85.3487 47.7229 85.3689C47.8386 85.3772 47.953 85.3843 48.0675 85.3902L48.11 85.2265L48.6409 82.6814L52.124 65.9942L52.1299 65.9657L52.5913 63.7541L56.8885 47.5272L56.9062 47.4584L61.8088 28.9487L61.8265 28.8799L66.7137 10.4283L66.7196 10.4046L67.6907 6.73939L67.7037 6.68956L68.4034 4.04362L68.4128 4.0104L68.4364 3.92141C57.5163 1.94348 46.5938 0.124544 35.3031 0.00589196ZM59.843 8.5607L59.8454 8.59392L59.8926 9.3355L63.7757 10.382L59.9787 11.8675L60.0531 13.0339L60.2371 15.8839L58.2525 13.3922L57.7888 12.8084L57.7345 12.7396L56.9251 13.0386L53.9376 14.1373L56.0956 10.732L53.593 7.58775L57.4573 8.71969L57.475 8.72444L57.8266 8.15728L57.9269 7.99592L59.4218 5.57304L59.515 5.42236L59.633 5.23014L59.646 5.44134L59.6566 5.60271L59.843 8.5607ZM50.3129 48.5417L50.3778 50.0782L50.4426 51.6432V51.6456L50.4851 52.6459L48.8816 50.6335L48.5005 50.1542L48.2197 49.7994L48.1666 49.7329L47.9825 49.5016L44.1855 50.8993L46.4297 47.494L43.841 44.3497L46.7861 45.1447L47.1483 45.2432L47.7253 45.3986L49.9683 41.9921L50.1406 46.0963L54.0249 47.144L50.3129 48.5417ZM26.8396 65.9183C26.3617 65.274 25.852 64.6297 25.3293 63.9854C25.1771 63.7968 25.0225 63.6081 24.8679 63.4195C24.7676 63.2972 24.6662 63.175 24.5659 63.0528C24.4892 62.9603 24.4137 62.8677 24.337 62.7752C24.0821 62.8606 23.8308 62.9508 23.5807 63.0421C22.5636 63.4135 21.5807 63.8217 20.54 64.1717C21.3176 63.0374 22.0066 61.9019 22.7842 60.7664C21.9217 59.7187 21.058 58.671 20.1955 57.6233C21.1772 57.8879 22.1588 58.1525 23.1405 58.4171C23.2821 58.4562 23.4237 58.4942 23.5641 58.5322C23.7352 58.5785 23.9063 58.6247 24.0774 58.671C24.1494 58.5654 24.2213 58.461 24.291 58.3554C24.3382 58.2866 24.3842 58.2166 24.4302 58.1477C25.0697 57.1867 25.6656 56.2256 26.3228 55.2657C26.3912 56.3846 26.4042 57.4489 26.4526 58.5452C26.4573 58.6793 26.4644 58.8134 26.4714 58.9486C26.4785 59.0875 26.4856 59.2275 26.495 59.3687C27.7894 59.7187 29.0838 60.0687 30.3782 60.4176C29.1699 60.8542 27.8744 61.3774 26.6673 61.8141C26.6897 62.176 26.7074 62.5343 26.7204 62.8879C26.7275 63.0765 26.7346 63.2628 26.7405 63.4503C26.7676 64.2666 26.7877 65.077 26.8396 65.9183ZM6.64647 40.77C7.33673 39.6345 8.11311 38.5002 8.80336 37.3647C8.0258 36.317 7.16446 35.2693 6.30194 34.1338C7.29307 34.4684 8.28656 34.7519 9.28005 35.0237C9.49126 35.0818 9.70364 35.1399 9.91603 35.1969C10.0057 35.2218 10.0942 35.2455 10.1839 35.2693C10.2995 35.1008 10.4128 34.9323 10.5237 34.7638C10.5308 34.7543 10.5367 34.746 10.5426 34.7365C11.1774 33.779 11.7591 32.8215 12.3419 31.864C12.4127 32.9342 12.4823 34.0626 12.5531 35.153C12.5579 35.2182 12.5614 35.2823 12.5661 35.3464C12.5779 35.5256 12.5897 35.7035 12.6015 35.8803C13.8959 36.2292 15.1903 36.5792 16.4834 36.928C15.2752 37.4513 13.9808 37.8891 12.6865 38.4124C12.7053 38.7054 12.7254 39.0009 12.7443 39.2999C12.7549 39.4624 12.7655 39.625 12.775 39.7887C12.8328 40.6739 12.8906 41.5709 12.9461 42.4299C12.3809 41.7441 11.8169 41.0607 11.2777 40.3749C11.1667 40.2337 11.0558 40.0925 10.9473 39.9513C10.8305 39.7994 10.7148 39.6475 10.6016 39.4968C10.5473 39.4256 10.4954 39.3556 10.4434 39.2856C10.1945 39.3687 9.94906 39.4565 9.706 39.5479C8.68065 39.9228 7.69188 40.3476 6.64647 40.77ZM35.2795 3.65563C35.2571 3.62834 35.2335 3.59986 35.2111 3.57257C35.3067 3.59749 35.4011 3.62359 35.4966 3.64969C35.6134 3.68173 35.7291 3.71258 35.8459 3.74343C36.6152 3.95226 37.3857 4.15871 38.155 4.36635C38.4547 4.44822 38.7532 4.52772 39.0541 4.60959C39.0671 4.61315 39.0812 4.61671 39.0942 4.62027L39.4281 4.09227L39.5414 3.91429L39.591 3.83598L39.7325 3.61291L41.2511 1.21496L41.454 4.43398L41.4588 4.50043L41.5107 5.31794C42.805 5.66678 44.1006 6.0168 45.395 6.36683C44.1855 6.80228 42.8912 7.32672 41.598 7.76336C41.618 8.0944 41.6381 8.41951 41.6582 8.74343C41.6629 8.81936 41.6676 8.89649 41.6723 8.97242C41.7337 9.93588 41.795 10.8792 41.8552 11.8675C41.231 11.1082 40.6057 10.35 40.0145 9.5906C39.9567 9.51822 39.9013 9.44466 39.8446 9.37228C39.6901 9.17295 39.539 8.9748 39.3904 8.77546C39.3774 8.75885 39.3656 8.74105 39.3526 8.72444C39.0848 8.81462 38.8146 8.90954 38.5467 9.00683C37.5249 9.37465 36.5125 9.7757 35.5556 10.121C36.2471 8.98548 37.0234 7.84998 37.7137 6.71566C36.9774 5.72255 36.1656 4.7318 35.348 3.73868C35.3255 3.71139 35.3019 3.68292 35.2795 3.65563ZM38.273 56.1532L38.404 59.1943L36.4217 56.7038L35.9013 56.0512L32.1032 57.4489L34.3486 54.1302L31.7587 50.8993L34.7497 51.7738L35.6429 52.0336L35.9155 51.6183L36.0123 51.4724L37.886 48.6295L38.0417 52.2448L38.0582 52.6459L42.0287 53.6936L38.2305 55.1779L38.273 56.1532ZM19.6763 54.1302C19.13 53.4657 18.5825 52.8013 18.0374 52.1155C17.9064 51.9517 17.7755 51.7868 17.6457 51.6207C17.5324 51.4759 17.4191 51.33 17.3058 51.1829C17.2327 51.0891 17.1607 50.9942 17.0887 50.8993C16.8492 51.0037 16.6062 51.1069 16.3607 51.2102C15.3672 51.6266 14.3277 52.0324 13.2918 52.3848C14.0682 51.2481 14.7584 50.1138 15.5348 48.9783C14.6723 47.9306 13.8086 46.8817 12.9461 45.8352C13.8971 46.0915 14.8953 46.3478 15.8699 46.6041C16.0457 46.6504 16.2215 46.6966 16.3961 46.7429C16.5696 46.7904 16.7442 46.8355 16.9153 46.8817C16.9944 46.7524 17.0746 46.6231 17.156 46.4937C17.182 46.4498 17.2103 46.4059 17.2374 46.362C17.8404 45.401 18.4881 44.4387 19.0734 43.4776C19.1442 44.6226 19.2138 45.7071 19.2374 46.8307C19.2386 46.9019 19.2409 46.9731 19.2409 47.0443C19.2445 47.2223 19.2456 47.4014 19.2456 47.5818C20.6261 47.9306 21.9217 48.2795 23.2161 48.6295C21.9217 49.0649 20.7123 49.5894 19.4191 50.026C19.4391 50.3665 19.4616 50.7011 19.4816 51.0322C19.4922 51.1924 19.5017 51.3514 19.5123 51.5104C19.5666 52.3789 19.622 53.2367 19.6763 54.1302ZM25.4591 45.8352C26.1505 44.6985 26.9257 43.5642 27.6171 42.4299C26.7534 41.381 25.8909 40.3345 25.0272 39.2856C26.0372 39.5396 27 39.797 27.9499 40.0521C28.1458 40.1043 28.3404 40.1565 28.5351 40.2099C28.6897 40.2515 28.8431 40.293 28.9976 40.3345C29.0885 40.185 29.1794 40.0379 29.2726 39.8896C29.2891 39.8623 29.3056 39.835 29.3233 39.8077C29.9251 38.8478 30.5717 37.8879 31.1545 36.928C31.2265 37.9947 31.2961 39.1195 31.3657 40.2064C31.3705 40.2894 31.3764 40.3737 31.3811 40.4555C31.3929 40.6205 31.4035 40.783 31.4141 40.9444C32.7085 41.2944 34.0029 41.6433 35.2972 41.9921C34.0029 42.5177 32.7946 43.041 31.5003 43.4776C31.5203 43.8146 31.5416 44.1468 31.5628 44.4743C31.5722 44.6167 31.5805 44.7591 31.5899 44.9003C31.6466 45.7901 31.7032 46.667 31.7587 47.5818C31.2065 46.8556 30.6554 46.1651 30.1032 45.4888C29.9817 45.3393 29.8602 45.1909 29.7386 45.0426C29.6254 44.9038 29.5121 44.765 29.3988 44.6273C29.3221 44.5348 29.2454 44.4423 29.1699 44.3497C28.9528 44.4446 28.7322 44.536 28.5103 44.6238C27.4992 45.0343 26.4502 45.4057 25.4591 45.8352ZM29.9475 20.8614C30.9551 21.1331 31.9616 21.4582 32.9681 21.7524C33.2194 21.8272 33.4731 21.8984 33.7244 21.9672C33.7598 21.9767 33.794 21.9862 33.8294 21.9957C33.958 21.8094 34.0831 21.6243 34.2058 21.438C34.2223 21.4143 34.2377 21.3894 34.253 21.3656C34.863 20.4401 35.4247 19.5158 35.9875 18.5915C36.0583 19.6606 36.1291 20.789 36.1987 21.8794C36.1999 21.9043 36.2022 21.9292 36.2034 21.9541C36.2187 22.1748 36.2317 22.392 36.2471 22.6067C37.5414 22.9579 38.8358 23.3068 40.1302 23.6556C38.9219 24.1789 37.6264 24.6155 36.332 25.1399C36.3521 25.4318 36.371 25.7285 36.3898 26.0275C36.3981 26.1532 36.4063 26.2802 36.4134 26.4071C36.4736 27.3279 36.5338 28.2629 36.5916 29.1563C36.004 28.4432 35.4164 27.7313 34.8571 27.017C34.7686 26.9043 34.6801 26.7904 34.5928 26.6777C34.463 26.5092 34.3344 26.3407 34.2082 26.1722C34.168 26.1188 34.1279 26.0666 34.089 26.0132C33.84 26.0975 33.5946 26.1841 33.3515 26.2743C32.3262 26.6516 31.3386 27.074 30.292 27.4976C30.9823 26.3621 31.7587 25.2266 32.4501 24.0922C31.6737 22.9579 30.81 21.9091 29.9475 20.8614ZM45.2628 15.2373L45.395 15.2728L45.7407 14.7472L45.8068 14.6464L47.638 11.8675L47.7772 15.1316L47.7796 15.1827L47.8103 15.8839L51.6945 16.9316L47.9825 18.4171L48.025 19.3924L48.0356 19.6297L48.156 22.4323L45.7773 19.4458L45.6522 19.2892L44.9419 19.568L41.8552 20.7747L44.1006 17.3682L41.5107 14.2251L45.2628 15.2373ZM43.323 40.8578L40.9408 37.8844L40.7343 37.6269L37.0234 39.1112L39.1803 35.7059L36.6777 32.5616L39.5957 33.3495L40.2434 33.5251L40.5608 33.6105L40.8771 33.1122L40.8959 33.0813L42.7189 30.204L42.9254 33.4919L42.9372 33.6722L42.9773 34.3082L46.8616 35.3571L43.0646 36.7536L43.323 40.8578ZM20.7925 28.2878C21.0226 28.3495 21.2527 28.4124 21.4828 28.4741L21.7482 28.5453C21.8556 28.3685 21.9642 28.1929 22.0763 28.0161C22.0774 28.0137 22.0798 28.0113 22.081 28.009C22.6816 27.0526 23.3246 26.0963 23.9051 25.1399C23.9771 26.2066 24.0467 27.3326 24.1163 28.4195C24.1199 28.4681 24.1222 28.5168 24.1258 28.5654C24.1388 28.7648 24.1529 28.9617 24.1647 29.1563C25.4591 29.5052 26.7534 29.8552 28.049 30.204C26.8396 30.7285 25.5464 31.1651 24.2508 31.6884C24.2709 31.9814 24.2898 32.2769 24.3075 32.5759C24.3169 32.7289 24.3275 32.882 24.3382 33.0351C24.396 33.9297 24.4526 34.8374 24.5092 35.7059C23.937 35.0094 23.3635 34.3141 22.8172 33.6176C22.7181 33.4942 22.6214 33.3696 22.5258 33.2451C22.3972 33.079 22.2698 32.9128 22.1447 32.7467C22.0987 32.685 22.0527 32.6233 22.0066 32.5616C21.753 32.6649 21.4993 32.7645 21.2468 32.8606C20.2084 33.2605 19.1819 33.6259 18.2097 34.046C18.9011 32.9117 19.6763 31.7762 20.3677 30.6418C19.504 29.593 18.7276 28.5453 17.8651 27.4976C18.8409 27.761 19.8179 28.0244 20.7925 28.2878ZM55.1458 30.204L55.2308 31.5092L55.4042 34.2216L53.0054 31.3087L52.8155 31.0773L49.1046 32.5616L51.2627 29.1563L48.674 26.0132L52.2987 26.9696L52.6432 27.0609L52.9712 26.5436L52.9806 26.5294L54.8001 23.6556L55.0125 26.9363L55.0207 27.0728L55.0597 27.672L58.9428 28.7197L55.1458 30.204ZM25.642 9.86706C25.9275 9.94418 26.2107 10.0201 26.495 10.0972C26.5234 10.1055 26.5529 10.1127 26.5812 10.121C26.7003 9.94656 26.8183 9.77214 26.934 9.59772C26.9647 9.55145 26.9953 9.50636 27.0248 9.46008C27.6289 8.54528 28.2 7.62928 28.8254 6.71566C28.895 7.83099 28.908 8.89174 28.9552 9.98453V9.99639C28.967 10.2681 28.9799 10.5422 28.9976 10.8198C30.292 11.1687 31.5864 11.5187 32.8808 11.8675C31.6737 12.3042 30.3782 12.8274 29.1699 13.2653C29.1923 13.6271 29.2089 13.9843 29.223 14.3379C29.2254 14.3901 29.2266 14.4435 29.2289 14.4957C29.2643 15.4508 29.2832 16.3882 29.3434 17.3682C28.7876 16.6195 28.1894 15.872 27.5782 15.1233C27.5086 15.0391 27.439 14.9537 27.3694 14.8694C27.2207 14.6879 27.0708 14.5052 26.921 14.3236C26.8939 14.2904 26.8667 14.2584 26.8396 14.2251C26.5847 14.3106 26.3334 14.4008 26.0833 14.4933C25.0662 14.8635 24.0809 15.2717 23.0426 15.6229C23.8202 14.4874 24.5092 13.3519 25.2868 12.2164C24.4243 11.1687 23.5606 10.121 22.6981 9.07328C23.6786 9.33787 24.6615 9.60247 25.642 9.86706ZM17.3908 16.7192C17.392 16.7346 17.392 16.7501 17.3932 16.7655C17.4038 17.0218 17.4179 17.2804 17.4333 17.5427C18.7276 17.8915 20.0232 18.2427 21.4025 18.5915C20.1082 19.0282 18.8138 19.5514 17.6055 19.9881C17.6291 20.3559 17.6516 20.7202 17.674 21.0785C17.6775 21.1426 17.6811 21.2066 17.6846 21.2695C17.7389 22.2081 17.7778 23.1288 17.7778 24.0922C17.2339 23.3578 16.6486 22.6245 16.0492 21.8901C15.9678 21.7916 15.8876 21.6919 15.8062 21.5934C15.6634 21.419 15.5206 21.2458 15.3767 21.0714C15.3425 21.031 15.3094 20.9895 15.2752 20.9492C15.0203 21.0346 14.7678 21.1248 14.5189 21.2173C13.5018 21.5887 12.5177 21.9945 11.4782 22.3457C12.2546 21.2102 12.9461 20.0747 13.7224 18.9404C12.8599 17.8915 11.9974 16.845 11.1337 15.7973C12.1154 16.0619 13.0959 16.3265 14.0776 16.5911C14.3431 16.6634 14.6062 16.7335 14.8717 16.8058C14.9201 16.8189 14.9684 16.8319 15.0168 16.845C15.136 16.6694 15.2528 16.4961 15.3684 16.3217C15.3885 16.2921 15.4085 16.2612 15.4286 16.2316C16.0457 15.3001 16.6227 14.3699 17.261 13.4397C17.3294 14.5586 17.3436 15.6229 17.3908 16.7192ZM2.2914 58.9059C2.13093 58.9712 1.97164 59.0388 1.81353 59.1065C1.96928 58.8525 2.12857 58.5962 2.2914 58.3423C2.51676 57.9864 2.74685 57.6304 2.97693 57.2745C3.31557 56.75 3.65302 56.2256 3.9716 55.7023C3.64005 55.3001 3.30849 54.8967 2.97693 54.4944C2.74921 54.2168 2.5203 53.9392 2.2914 53.6615C1.98816 53.2949 1.68492 52.9259 1.38168 52.5592C1.68964 52.6364 1.9917 52.7135 2.2914 52.7918C2.52148 52.8511 2.75039 52.9104 2.97693 52.971C3.42412 53.0884 3.86541 53.2059 4.30316 53.3234C4.45891 53.3661 4.61466 53.4076 4.77041 53.4491C4.96391 53.5013 5.15742 53.5535 5.35092 53.6057C5.42172 53.4895 5.4937 53.3744 5.56567 53.2581C5.60225 53.1988 5.64001 53.1394 5.67776 53.0801C6.27952 52.1202 6.92612 51.1603 7.50899 50.2016C7.57743 51.3217 7.64822 52.3872 7.71666 53.4847C7.72492 53.6034 7.732 53.722 7.73908 53.8407C7.7497 53.9949 7.75914 54.1492 7.76858 54.3046C9.06295 54.6546 10.3561 55.0035 11.6505 55.3523C10.3561 55.7889 9.14908 56.3134 7.85353 56.7488C7.87477 57.087 7.89601 57.4192 7.91607 57.7491C7.92786 57.9282 7.93848 58.1062 7.95028 58.283C8.00456 59.1349 8.05884 59.9774 8.11311 60.8542C7.57979 60.2064 7.04647 59.5253 6.51196 58.8514C6.37037 58.6722 6.2276 58.493 6.08601 58.3162C5.98808 58.194 5.89015 58.0718 5.79221 57.9508C5.70254 57.8404 5.61405 57.7313 5.52437 57.6233C5.30727 57.7182 5.08662 57.8084 4.8648 57.8974C4.24062 58.1489 3.60465 58.3874 2.97693 58.633C2.74685 58.722 2.51794 58.8134 2.2914 58.9059ZM13.2705 70.5932C13.1101 70.3879 12.9484 70.1838 12.7844 69.9785C12.7018 69.8741 12.618 69.7697 12.5343 69.6665C12.4422 69.5526 12.349 69.4387 12.2546 69.3248C12.0257 69.4019 11.7992 69.4826 11.5738 69.5656C10.5296 69.9465 9.52311 70.3784 8.45765 70.8079C9.23521 69.6736 9.92546 68.5381 10.7018 67.4026C9.83933 66.3549 8.97563 65.2206 8.11311 64.1717C9.11604 64.4434 10.119 64.765 11.1207 65.0604C11.2493 65.0972 11.3768 65.134 11.5054 65.1708C11.6694 65.217 11.8334 65.2633 11.9974 65.3072C12.0717 65.198 12.1449 65.0901 12.2169 64.9809C12.2688 64.9038 12.3207 64.8255 12.3714 64.7484C13.0027 63.7991 13.5915 62.8499 14.2404 61.9019C14.2404 62.9709 14.2982 64.1005 14.3655 65.1909C14.3749 65.3404 14.3844 65.4899 14.3938 65.6382C14.4009 65.732 14.4068 65.8257 14.4127 65.9183C15.7071 66.2671 17.0014 66.6159 18.297 66.9671C17.0887 67.4904 15.7944 67.927 14.585 68.4503C14.585 68.76 14.5897 69.0732 14.5979 69.39C14.6038 69.6155 14.6121 69.8409 14.6215 70.0687C14.6558 70.8744 14.7065 71.6859 14.7584 72.4679C14.244 71.8426 13.7602 71.2185 13.2705 70.5932ZM20.4645 82.7645C20.2863 82.5319 20.1093 82.2982 19.9359 82.068C19.8556 81.9612 19.7766 81.8556 19.6975 81.75C19.6043 81.6242 19.5111 81.4985 19.4191 81.3751C19.1607 81.4795 18.9058 81.5803 18.6521 81.6788C17.6386 82.0763 16.6569 82.4394 15.6209 82.8582C16.3112 81.7239 17.0887 80.5884 17.7778 79.4529C17.0014 78.4052 16.1389 77.3575 15.2752 76.3086C16.2569 76.5744 17.2374 76.839 18.2179 77.1024C18.3052 77.1261 18.3914 77.1499 18.4787 77.1724C18.7064 77.2341 18.933 77.2958 19.1595 77.3575C19.2008 77.297 19.2421 77.2365 19.2822 77.176C19.3601 77.0621 19.4356 76.9482 19.5111 76.8342C20.1483 75.8732 20.7323 74.9121 21.3176 73.951C21.386 75.0758 21.4556 76.1437 21.5252 77.246C21.537 77.4275 21.5477 77.6114 21.5595 77.7953C21.5642 77.8819 21.5701 77.9686 21.5748 78.0552C22.8703 78.4052 24.1647 78.754 25.4591 79.1041C24.2508 79.5407 22.9565 80.064 21.6621 80.5006C21.6798 80.7984 21.6987 81.0938 21.7164 81.3857C21.7353 81.6776 21.753 81.9659 21.7718 82.2543C21.8214 83.0314 21.8709 83.8039 21.9217 84.6048C21.432 84.0091 20.94 83.385 20.4645 82.7645ZM31.0684 74.3888L27.2714 75.8732L29.4283 72.4679L26.9257 69.3248L29.8425 70.1114L30.81 70.3713L32.9669 66.9671L33.1793 70.2479L33.2111 70.751L33.2253 70.9823L37.1096 72.0312L33.3126 73.5144L33.5722 77.5319L31.0684 74.3888ZM39.3526 69.3248L41.5107 65.9183L39.0081 62.6874L41.9685 63.5535L42.3815 63.6734L42.8912 63.8229L43.2487 63.2569L45.0492 60.4176L45.2888 64.1326L45.3076 64.4339L49.1919 65.4816L45.395 66.9671L45.6522 70.9823L43.1496 67.8392L39.3526 69.3248Z" fill="#1C355E"/>
</svg>
