<?xml version="1.0" encoding="UTF-8"?>
<svg id="Layer_1" xmlns="http://www.w3.org/2000/svg" xmlns:xlink="http://www.w3.org/1999/xlink" version="1.1" viewBox="0 0 115 48">
  <!-- Generator: Adobe Illustrator 29.4.0, SVG Export Plug-In . SVG Version: 2.1.0 Build 152)  -->
  <defs>
    <style>
      .st0 {
        fill: url(#linear-gradient);
      }

      .st1 {
        fill: #fff;
      }

      .st2 {
        fill: #17191e;
      }
    </style>
    <linearGradient id="linear-gradient" x1="5" y1="12" x2="18.1" y2="18.2" gradientTransform="translate(0 50) scale(1 -1)" gradientUnits="userSpaceOnUse">
      <stop offset="0" stop-color="#d83333"/>
      <stop offset="1" stop-color="#f041ff"/>
    </linearGradient>
  </defs>
  <path class="st2" d="M7.8,36.3c-1.4-1.2-1.8-3.8-1.2-5.7,1,1.2,2.3,1.6,3.7,1.8,2.2.3,4.3.2,6.3-.8.2-.1.4-.3.7-.4.2.5.2,1.1.2,1.7-.2,1.3-.9,2.5-1.9,3.2-.4.3-.9.6-1.3.9-1.4.9-1.8,2-1.2,3.6v.2c-.6-.3-1.2-.8-1.6-1.4-.4-.6-.6-1.4-.6-2.1,0-.4,0-.7,0-1.1-.1-.9-.6-1.3-1.3-1.3-.8,0-1.5.5-1.6,1.3,0,0,0,.1,0,.2h0Z"/>
  <path class="st0" d="M7.8,36.3c-1.4-1.2-1.8-3.8-1.2-5.7,1,1.2,2.3,1.6,3.7,1.8,2.2.3,4.3.2,6.3-.8.2-.1.4-.3.7-.4.2.5.2,1.1.2,1.7-.2,1.3-.9,2.5-1.9,3.2-.4.3-.9.6-1.3.9-1.4.9-1.8,2-1.2,3.6v.2c-.6-.3-1.2-.8-1.6-1.4-.4-.6-.6-1.4-.6-2.1,0-.4,0-.7,0-1.1-.1-.9-.6-1.3-1.3-1.3-.8,0-1.5.5-1.6,1.3,0,0,0,.1,0,.2h0Z"/>
  <path class="st1" d="M0,30.3s4-2,8.1-2l3-9.4c.1-.5.4-.8.8-.8s.7.3.8.8l3,9.4c4.8,0,8.1,2,8.1,2l-6.8-18.6c-.2-.6-.5-.9-1-.9H7.8c-.4,0-.8.4-1,.9L0,30.3ZM42.4,24.3c0,1.6-2,2.6-4.9,2.6s-2.5-.5-2.5-1.4.8-1.5,2.7-1.5,3.1,0,4.7.2h0ZM42.4,22.3c-1.4-.3-2.9-.4-4.4-.4-5.3,0-7.8,1.2-7.8,4.2s1.7,4.2,5.7,4.2,5.6-.8,6.5-2.9h.1c0,.5,0,1,0,1.4,0,1.1.2,1.2,1.1,1.2h4.2c-.3-1.3-.4-2.7-.4-4,0-1.7,0-2.9,0-4.6,0-3.5-2.1-5.6-8.6-5.6s-5.9.5-8.3,1.2c.2.9.5,2.8.7,4.1,2-1,4.9-1.4,7.2-1.4s4,.7,4,2.1c0,0,0,.6,0,.6ZM53.8,25.3c-.6,0-1.3,0-2.1,0s-1.6,0-2.1-.1v.6c0,2.9,1.8,4.5,8.4,4.5s8.2-1.6,8.2-4.5-1.3-4.1-7.2-4.4c-4.6-.2-5-.7-5-1.3s.6-1,3.7-1,4,.4,4,1.4v.2c1.4,0,2.8,0,4.2,0v-.5c0-3.4-2.8-4.5-8.2-4.5s-8.1,1.5-8.1,4.4,1.6,4.2,7.5,4.5c4.3.1,4.8.6,4.8,1.3s-.7,1-3.7,1-4.3-.5-4.3-1.5c0,0,0-.1,0-.1ZM73.6,13.2c-1.8,1.6-3.9,2.8-6.2,3.5,0,.8,0,2.4,0,3.2h1.5c0,1.6,0,3.6,0,4.9,0,3,1.6,5.3,6.6,5.3s3.5-.2,5.2-.6c-.2-1.4-.4-2.7-.5-4.1-1,.3-2.3.5-3.8.5s-2.8-.5-2.8-2.1,0-2.6,0-3.8c2.6,0,5.1,0,6.6.1,0-1.2,0-2.9,0-4-2.2,0-4.7,0-6.7,0v-2.9c0,0,0,0,0,0ZM87.1,19.3c0-1.1,0-2.1,0-3.2h-4.5c0,2,0,4,0,6.9s0,5,0,6.9h5.2c0-1.4-.1-3.7-.1-5.6,0-3.1,1.3-4,4.1-4s2.3.2,3.1.5c0-1.2.3-3.4.4-4.4-.9-.2-1.8-.4-3-.4-2.5,0-4.3,1-5.1,3.4h-.2s0,0,0,0ZM109.6,22.9c0,2.5-1.8,3.7-4.6,3.7s-4.6-1.1-4.6-3.7,1.8-3.5,4.6-3.5,4.6,1,4.6,3.5ZM114.3,22.8c0-5-3.9-7.2-9.3-7.2s-9.2,2.2-9.2,7.2,3.5,7.6,9.2,7.6,9.4-2.6,9.4-7.6h0Z"/>
</svg>