<?xml version="1.0" encoding="UTF-8"?>
<svg id="Layer_1" xmlns="http://www.w3.org/2000/svg" version="1.1" viewBox="0 0 291 186.1">
  <!-- Generator: Adobe Illustrator 29.4.0, SVG Export Plug-In . SVG Version: 2.1.0 Build 152)  -->
  <defs>
    <style>
      .st0 {
        fill: #1c355e;
      }

      .st1 {
        fill-rule: evenodd;
      }

      .st1, .st2 {
        fill: #e74c3c;
      }
    </style>
  </defs>
  <path class="st1" d="M240.8,186.1c16.1.2,32.5-1.6,50.2-5.8V14.1c-32.5,7.9-61.4,6.8-90,2.9l13.5,57.2,23.8-5.3-7.6,28.8c-.2.5-.3,1.1-.5,1.8,2.7,1.1,5.2,2.6,7.7,3.9l5.2,2.4-17.7,15.2,15.3,65.1h0Z"/>
  <path class="st2" d="M198,142.6l3.2,11.2-35.4-4.3c-1-.2-2.2.5-2.2,1.4l.4,22.1v2.3s-6.7-1.8-6.7-1.8v-1.5s.6-21.1.6-21.1c0-1-1.4-1.4-2.4-1.4l-35.4,4.3,3.2-11.2c.5-1.6-.2-3.5-1.4-4.6l-12.1-10.3v-.4c0,0,13.7-51.8,13.7-51.8l9.1,10.6c3.3,3.8,6.5,2.1,5.6-2.9l-7.2-39.6,10.4,5.6c2.1,1.1,4.5,1.6,5.7-1l13.5-26,13.5,26c1.3,2.6,3.7,2.1,5.7,1l10.4-5.6-7.2,39.6c-.8,5,2.4,6.7,5.6,2.9l16.1-18.9,2.9,10.4c.5,1.4,1.8,2.4,3.2,2.1l21.2-4.8-5.9,22.6c-.8,3.5-1.3,5,1.3,5.9,2.7,1.1,5.4,2.7,8,4l-36,30.6c-1.3,1.1-1.9,3-1.4,4.6Z"/>
  <path class="st1" d="M197.5,22.5c-19.1-2.4-38.1-5.6-57.8-8.5l.2-.7,1.2-4.6c18.7,2.8,36.7,5.9,54.8,8.2l1.7,5.6Z"/>
  <path class="st1" d="M93,163.3c1.1.1,2.2.3,3.3.4l-1.1,5v.3c-.3,0-.5,0-.8,0l-1.5-5.7Z"/>
  <path class="st1" d="M235.9,185.6c-45.2-.6-87.1-10.6-134.7-15.9l1.1-5.4c19,2.1,37.2,5,55.1,7.7,2.2.3,4.4.7,6.6,1,23.5,3.5,46.6,6.5,70.3,7l1.5,5.6Z"/>
  <path class="st0" d="M11.1,8.8l3.2.9,1,.3h.2c0,0,.6-1,.6-1l.2-.4,1-1.6c-2,.5-4.3,1.2-6.3,1.9ZM0,46.7v8.8l3.2-5-3.2-3.8ZM69.9,0c-1.1,0-2.3,0-3.4,0-5.2,0-10.3.2-15.6.7l-6.5,2.6c0,.6,0,1.3.1,2,0,0,0,.1,0,.2.1,1.9.2,3.9.4,5.8-1.2-1.5-2.5-3-3.7-4.5-.1-.1-.2-.2-.3-.4-.3-.4-.6-.8-.9-1.1,0,0-.1-.2-.2-.2-.4.2-.9.4-1.3.5-2,.8-4.1,1.5-6,2.4l2.5-4,.8-1.2c-5.1.9-10.4,2.1-15.7,3.5v3.7c.1,0,.2,1.3.2,1.3,2.6.9,5.3,1.6,7.9,2.2-2.6.9-5,1.9-7.5,2.8,0,.7,0,1.3.1,2,0,0,0,.2,0,.3.1,2,.3,3.9.4,5.9-1.2-1.6-2.4-3.1-3.6-4.6-.1-.1-.2-.3-.4-.4-.3-.4-.6-.8-.9-1.1,0,0-.1-.2-.2-.2-.5.2-.9.4-1.4.6-2,.8-4,1.5-6.1,2.3,1.5-2.2,2.9-4.5,4.4-6.7l-2.5-3.1-1.3-1.6c-3.1,1-6,2.1-9.1,3.3v12.6l5.1,1.2,1,.3-6.2,2.4v15.4l5.8,1.6c.2-.3.5-.7.7-1h0c1.2-2,2.4-3.8,3.7-5.7,0,2.2.1,4.3.2,6.5,0,0,0,.1,0,.2,0,.5,0,.9,0,1.4l7.7,2.1c-2.4.9-5,1.9-7.3,2.8,0,.7,0,1.4,0,2,0,.2,0,.5,0,.7,0,1.8.2,3.6.3,5.4-1.2-1.4-2.2-2.8-3.3-4.2-.2-.2-.4-.4-.5-.7-.3-.3-.5-.7-.8-1,0-.1-.2-.2-.3-.3l-1.5.6h-.3c0,.1-4.5,1.9-4.5,1.9v27c2.9.7,5.8,1.6,8.7,2.3l-8.7,3.5v53.4l4.4-6.7.4,6.3v1.7c2.7.7,5.2,1.4,7.8,2.1-2.6,1-5,1.9-7.5,2.9,0,.7,0,1.3.1,2,.1,2,.3,4,.4,6-.4-.4-.7-.9-1.1-1.3-1.3-1.6-2.7-3.3-4-4.9l-.5.7v29c1.5-.6,3-1.2,4.5-1.7.5-.2.9-.3,1.4-.5,14.9-5.3,29.2-8.4,43.3-9.7,0,0,0,0,0,0,7-.7,13.9-.9,20.8-.9.3,0,.6,0,.9,0h1.7,0s-5.4-6.7-5.4-6.7l7.9,2.1.2-.3,4.1-6.5.5,7.7v.4s7.7,2.1,7.7,2.1l-2.1,1.7c2.3.1,4.6.3,6.8.5.7,0,1.4.1,2,.1.2,0,.5,0,.7,0v-.3c0,0,1.1-5,1.1-5l6.9-33h0c0,0,.9-4.4.9-4.4l8.5-32.1h0c0-.1,9.7-36.8,9.7-36.8h0c0-.1,9.7-36.7,9.7-36.7h0s1.9-7.3,1.9-7.3h0c0,0,1.4-5.3,1.4-5.3h0c0,0,0-.2,0-.2C113.9,3.8,92.2.2,69.9,0ZM118.5,16.9h0c0,0,0,1.5,0,1.5l7.7,2.1-7.5,2.9v2.3c.1,0,.5,5.6.5,5.6l-3.9-4.9-.9-1.2h-.1c0-.1-1.6.5-1.6.5l-5.9,2.2,4.3-6.7-5-6.2,7.6,2.2h0s.7-1.1.7-1.1l.2-.3,3-4.8.2-.3.2-.4v.4s0,.3,0,.3l.4,5.9ZM99.6,96.1v3c.1,0,.3,3.1.3,3.1h0s0,2,0,2l-3.2-4-.8-.9-.6-.7h-.1c0-.1-.4-.6-.4-.6l-7.5,2.8,4.4-6.7-5.1-6.2,5.8,1.6.7.2,1.1.3,4.4-6.7.3,8.1,7.7,2.1-7.3,2.8ZM53.1,130.5c-.9-1.3-2-2.6-3-3.8-.3-.4-.6-.7-.9-1.1-.2-.2-.4-.5-.6-.7-.2-.2-.3-.4-.5-.5-.5.2-1,.3-1.5.5-2,.7-4,1.5-6,2.2,1.5-2.2,2.9-4.5,4.4-6.7-1.7-2.1-3.4-4.1-5.1-6.2,1.9.5,3.9,1,5.8,1.6.3,0,.6.2.8.2.3,0,.7.2,1,.3.1-.2.3-.4.4-.6,0-.1.2-.3.3-.4,1.3-1.9,2.4-3.8,3.7-5.7.1,2.2.2,4.3.3,6.5,0,.3,0,.5,0,.8,0,.3,0,.6,0,.8,2.6.7,5.1,1.4,7.7,2.1-2.4.9-5,1.9-7.3,2.8,0,.7,0,1.4.1,2.1,0,.4,0,.7,0,1.1,0,1.6,0,3.2.2,4.9ZM13.2,80.7c1.4-2.2,2.9-4.5,4.3-6.7-1.5-2.1-3.2-4.1-5-6.4,2,.7,3.9,1.2,5.9,1.8.4.1.8.2,1.3.3.2,0,.4,0,.5.1.2-.3.5-.7.7-1,0,0,0,0,0,0,1.3-1.9,2.4-3.8,3.6-5.7.1,2.1.3,4.4.4,6.5,0,.1,0,.3,0,.4,0,.4,0,.7,0,1.1,2.6.7,5.1,1.4,7.7,2.1-2.4,1-5,1.9-7.5,2.9,0,.6,0,1.2.1,1.8,0,.3,0,.6,0,1,.1,1.8.2,3.5.3,5.2-1.1-1.4-2.2-2.7-3.3-4.1-.2-.3-.4-.6-.7-.8-.2-.3-.5-.6-.7-.9-.1-.1-.2-.3-.3-.4-.5.2-1,.3-1.5.5-2,.7-4,1.6-6.1,2.4ZM69.8,7.2c0,0,0-.1-.1-.2.2,0,.4.1.6.2.2,0,.5.1.7.2,1.5.4,3,.8,4.6,1.2.6.2,1.2.3,1.8.5,0,0,0,0,0,0l.7-1,.2-.4v-.2c0,0,.4-.4.4-.4l3-4.7.4,6.4h0c0,.1.1,1.7.1,1.7,2.6.7,5.1,1.4,7.7,2.1-2.4.9-5,1.9-7.5,2.8,0,.7,0,1.3.1,1.9,0,.2,0,.3,0,.5.1,1.9.2,3.8.4,5.7-1.2-1.5-2.5-3-3.6-4.5-.1-.1-.2-.3-.3-.4-.3-.4-.6-.8-.9-1.2,0,0,0,0,0-.1-.5.2-1.1.4-1.6.6-2,.7-4,1.5-5.9,2.2,1.4-2.2,2.9-4.5,4.3-6.7-1.5-2-3.1-3.9-4.7-5.9,0,0,0-.1-.1-.2ZM75.8,111.2l.3,6-3.9-4.9-1-1.3-7.5,2.8,4.4-6.6-5.1-6.4,5.9,1.7,1.8.5.5-.8.2-.3,3.7-5.6.3,7.2v.8s7.9,2.1,7.9,2.1l-7.5,2.9v1.9ZM39,107.2c-1.1-1.3-2.2-2.6-3.2-4-.3-.3-.5-.7-.8-1-.2-.3-.4-.6-.7-.9-.1-.2-.3-.4-.4-.6-.5.2-1,.4-1.4.6-2,.8-4,1.6-6.1,2.3,1.5-2.3,2.9-4.5,4.4-6.7-1.7-2.1-3.4-4.2-5.1-6.2,1.9.5,3.9,1,5.8,1.5.3,0,.7.2,1,.3.3,0,.7.2,1,.3.2-.3.3-.5.5-.8,0,0,.1-.2.2-.3,1.2-1.9,2.5-3.8,3.6-5.7.1,2.3.3,4.4.3,6.6,0,.1,0,.3,0,.4,0,.4,0,.7,0,1.1,2.7.7,5.3,1.4,7.9,2.1-2.6.9-5,1.9-7.5,2.8,0,.7,0,1.3.1,2,0,.3,0,.6,0,.9.1,1.7.2,3.4.3,5.2ZM50.4,90.7c1.4-2.3,2.9-4.5,4.3-6.7-1.7-2.1-3.4-4.1-5.1-6.2,2,.5,3.9,1,5.8,1.5.4.1.8.2,1.2.3.3,0,.6.2.9.2.2-.3.4-.6.5-.9,0,0,0-.1.1-.2,1.2-1.9,2.5-3.8,3.6-5.7.1,2.1.3,4.3.4,6.5,0,.2,0,.3,0,.5,0,.3,0,.6,0,1,2.6.7,5.1,1.4,7.7,2.1-2.6,1-5,2.1-7.5,2.9,0,.7,0,1.3.1,2,0,.3,0,.6,0,.8.1,1.8.2,3.5.3,5.3-1.1-1.4-2.2-2.8-3.3-4.1-.2-.3-.5-.6-.7-.9-.2-.3-.4-.5-.7-.8-.2-.2-.3-.4-.5-.5-.4.2-.9.4-1.3.5-2,.8-4.1,1.5-6,2.4ZM59.3,41.3c2,.5,4,1.2,6,1.8.5.1,1,.3,1.5.4,0,0,.1,0,.2,0,.3-.4.5-.7.7-1.1,0,0,0,0,0-.1,1.2-1.8,2.3-3.7,3.4-5.5.1,2.1.3,4.4.4,6.5,0,0,0,0,0,.1,0,.4,0,.9,0,1.3,2.6.7,5.1,1.4,7.7,2.1-2.4,1-5,1.9-7.5,2.9,0,.6,0,1.2.1,1.8,0,.2,0,.5,0,.8.1,1.8.2,3.7.4,5.4-1.2-1.4-2.3-2.8-3.4-4.2-.2-.2-.4-.4-.5-.7-.3-.3-.5-.7-.8-1,0-.1-.2-.2-.2-.3-.5.2-1,.3-1.5.5-2,.7-4,1.6-6.1,2.4,1.4-2.2,2.9-4.5,4.3-6.7-1.5-2.2-3.2-4.3-5-6.4ZM89.6,30.2h.3c0,0,.7-1,.7-1v-.2c.1,0,3.8-5.5,3.8-5.5l.3,6.5h0c0,.1,0,1.5,0,1.5l7.7,2.1-7.3,2.9v1.9c0,0,.1.5.1.5l.2,5.5-4.7-5.9-.2-.3-1.4.6-6.1,2.4,4.4-6.7-5.1-6.2,7.4,2ZM85.8,80.9l-4.7-5.9-.4-.5-7.3,2.9,4.3-6.7-5-6.2,5.8,1.6,1.3.3.6.2.6-1h0c0,0,3.6-5.8,3.6-5.8l.4,6.5v.4s.1,1.3.1,1.3l7.7,2.1-7.5,2.8.5,8.1ZM41.2,56c.5.1.9.2,1.4.4h.5c.2-.2.4-.6.6-.9,0,0,0,0,0,0,1.2-1.9,2.5-3.8,3.6-5.7.1,2.1.3,4.3.4,6.5,0,0,0,.2,0,.3,0,.4,0,.8,0,1.2,2.6.7,5.1,1.4,7.7,2.1-2.4,1-5,1.9-7.5,2.9,0,.6,0,1.2.1,1.8,0,.3,0,.6,0,.9.1,1.8.2,3.6.3,5.3-1.1-1.4-2.3-2.8-3.3-4.1-.2-.2-.4-.5-.6-.7-.3-.3-.5-.7-.8-1,0-.1-.2-.2-.3-.4-.5.2-1,.4-1.5.6-2.1.8-4.1,1.5-6,2.3,1.4-2.2,2.9-4.5,4.3-6.7-1.7-2.1-3.2-4.2-5-6.2,1.9.5,3.9,1,5.8,1.6ZM109.2,59.8l.2,2.6.3,5.4-4.7-5.8-.4-.5-7.3,2.9,4.3-6.7-5.1-6.2,7.2,1.9.7.2.6-1h0s3.6-5.7,3.6-5.7l.4,6.5v.3s0,1.2,0,1.2l7.7,2.1-7.5,2.9ZM50.8,19.5c.6.2,1.1.3,1.7.5,0,0,.1,0,.2,0,.2-.3.5-.7.7-1,0,0,.1-.2.2-.3,1.2-1.8,2.3-3.6,3.6-5.4.1,2.2.2,4.3.3,6.5h0c0,.6,0,1.1,0,1.7,2.6.7,5.1,1.4,7.7,2.1-2.4.9-5,1.9-7.3,2.8,0,.7,0,1.4.1,2.1,0,.1,0,.2,0,.3,0,1.9.1,3.7.2,5.7-1.1-1.5-2.3-3-3.5-4.4-.1-.2-.3-.3-.4-.5-.3-.4-.6-.7-.9-1.1,0,0-.1-.1-.2-.2-.5.2-1,.3-1.5.5-2,.7-4,1.5-6,2.2,1.5-2.2,2.9-4.5,4.4-6.7-1.7-2.1-3.4-4.1-5.1-6.2,1.9.5,3.9,1,5.8,1.6ZM34.4,33.1s0,0,0,0c0,.5,0,1,0,1.5,2.6.7,5.1,1.4,7.9,2.1-2.6.9-5.1,1.9-7.5,2.8,0,.7,0,1.4.1,2.2,0,.1,0,.3,0,.4.1,1.9.2,3.7.2,5.6-1.1-1.5-2.2-2.9-3.4-4.4-.2-.2-.3-.4-.5-.6-.3-.3-.6-.7-.9-1,0,0-.1-.2-.2-.2-.5.2-1,.3-1.5.5-2,.7-4,1.5-6,2.2,1.5-2.2,2.9-4.5,4.4-6.7-1.7-2.1-3.4-4.1-5.1-6.2,1.9.5,3.9,1,5.8,1.6.5.1,1,.3,1.6.4,0,0,.2,0,.3,0,.2-.3.5-.7.7-1,0,0,0-.1.1-.2,1.2-1.8,2.4-3.7,3.6-5.5.1,2.2.2,4.3.3,6.5ZM4.5,116.6c-.3.1-.6.3-.9.4.3-.5.6-1,.9-1.5.4-.7.9-1.4,1.4-2.1.7-1,1.3-2.1,2-3.1-.7-.8-1.3-1.6-2-2.4-.5-.5-.9-1.1-1.4-1.6-.6-.7-1.2-1.5-1.8-2.2.6.2,1.2.3,1.8.5.5.1.9.2,1.4.4.9.2,1.8.5,2.6.7.3,0,.6.2.9.2.4.1.8.2,1.1.3.1-.2.3-.5.4-.7,0-.1.1-.2.2-.4,1.2-1.9,2.5-3.8,3.6-5.7.1,2.2.3,4.3.4,6.5,0,.2,0,.5,0,.7,0,.3,0,.6,0,.9,2.6.7,5.1,1.4,7.7,2.1-2.6.9-5,1.9-7.5,2.8,0,.7,0,1.3.1,2,0,.4,0,.7,0,1.1.1,1.7.2,3.4.3,5.1-1.1-1.3-2.1-2.6-3.2-4-.3-.4-.6-.7-.8-1.1-.2-.2-.4-.5-.6-.7-.2-.2-.4-.4-.5-.6-.4.2-.9.4-1.3.5-1.2.5-2.5,1-3.7,1.5-.5.2-.9.4-1.4.5ZM26.3,139.7c-.3-.4-.6-.8-1-1.2-.2-.2-.3-.4-.5-.6-.2-.2-.4-.5-.6-.7-.5.2-.9.3-1.3.5-2.1.8-4.1,1.6-6.2,2.5,1.5-2.2,2.9-4.5,4.4-6.7-1.7-2.1-3.4-4.3-5.1-6.4,2,.5,4,1.2,6,1.8.3,0,.5.1.8.2.3,0,.6.2,1,.3.1-.2.3-.4.4-.6.1-.2.2-.3.3-.5,1.2-1.9,2.4-3.8,3.7-5.6,0,2.1.1,4.4.2,6.5,0,.3,0,.6,0,.9,0,.2,0,.4,0,.6,2.6.7,5.1,1.4,7.7,2.1-2.4,1-5,1.9-7.3,2.9,0,.6,0,1.2,0,1.9,0,.4,0,.9,0,1.3,0,1.6.2,3.2.3,4.7-1-1.2-2-2.5-2.9-3.7ZM40.5,163.8c-.4-.5-.7-.9-1-1.4-.2-.2-.3-.4-.5-.6-.2-.2-.4-.5-.6-.7-.5.2-1,.4-1.5.6-2,.8-3.9,1.5-6,2.3,1.4-2.2,2.9-4.5,4.3-6.7-1.5-2.1-3.2-4.1-5-6.2,1.9.5,3.9,1,5.8,1.6.2,0,.3,0,.5.1.5.1.9.2,1.3.4,0-.1.2-.2.2-.4.2-.2.3-.5.5-.7,1.3-1.9,2.4-3.8,3.6-5.7.1,2.2.3,4.3.4,6.5,0,.4,0,.7,0,1.1,0,.2,0,.3,0,.5,2.6.7,5.1,1.4,7.7,2.1-2.4.9-5,1.9-7.5,2.8,0,.6,0,1.2.1,1.8,0,.6,0,1.1.1,1.7,0,1.5.2,3.1.3,4.7-1-1.2-1.9-2.4-2.9-3.6ZM61.5,147.3l-7.5,2.9,4.3-6.7-5-6.2,5.8,1.6,1.9.5,4.3-6.7.4,6.5v1c0,0,0,.5,0,.5l7.7,2.1-7.5,2.9.5,8-5-6.2ZM77.9,137.2l4.3-6.7-5-6.4,5.9,1.7.8.2,1,.3.7-1.1,3.6-5.6.5,7.4v.6s7.7,2.1,7.7,2.1l-7.5,2.9.5,7.9-5-6.2-7.5,2.9Z"/>
</svg>