<?xml version="1.0" encoding="UTF-8"?>
<svg id="Layer_1" xmlns="http://www.w3.org/2000/svg" version="1.1" viewBox="0 0 343.9 48.4">
  <!-- Generator: Adobe Illustrator 29.5.0, SVG Export Plug-In . SVG Version: 2.1.0 Build 137)  -->
  <defs>
    <style>
      .st0 {
        fill: #fff;
      }

      .st1 {
        fill: #ec1c3a;
      }
    </style>
  </defs>
  <g>
    <g>
      <rect class="st0" x="112.6" y="7.8" width="6.9" height="8.1"/>
      <rect class="st0" x="112.6" y="21.6" width="6.9" height="20.3"/>
      <path class="st0" d="M137.2,15.4c1.5-1,3-1.4,4.7-1.4s3.3.5,4.7,1.4c.2.2.4.3.6.5h9s0,0,0,0c-1.5-2.7-3.4-4.8-6-6.3-2.5-1.5-5.3-2.3-8.4-2.3s-5.9.8-8.4,2.3c-2.5,1.5-4.5,3.6-5.9,6.3,0,0,0,0,0,0h9.1c.2-.2.4-.3.7-.5Z"/>
      <path class="st0" d="M151.2,24.8c0,2-.4,3.9-1.3,5.5-.8,1.7-2,3-3.4,3.9-1.4,1-3,1.4-4.7,1.4s-3.3-.5-4.7-1.5c-1.5-1-2.6-2.3-3.5-3.9-.9-1.7-1.3-3.5-1.3-5.5s.1-2.2.4-3.2h-7.3c-.2,1-.3,2.1-.3,3.2,0,3.3.7,6.3,2.2,9,1.5,2.7,3.4,4.8,6,6.3,2.5,1.5,5.3,2.3,8.4,2.3s5.9-.8,8.4-2.3c2.5-1.5,4.5-3.7,6-6.3,1.5-2.7,2.2-5.7,2.2-9s0-2.2-.3-3.2h-7.3c.3,1,.4,2.1.4,3.2Z"/>
      <rect class="st0" x="164" y="21.6" width="6.6" height="20.3"/>
      <rect class="st0" x="185.3" y="7.8" width="6.6" height="8.1"/>
      <polygon class="st0" points="185.3 29.8 179.7 21.6 171.7 21.6 185.6 41.9 191.9 41.9 191.9 21.6 185.3 21.6 185.3 29.8"/>
      <polygon class="st0" points="170.3 7.8 164 7.8 164 15.9 175.9 15.9 170.3 7.8"/>
    </g>
    <g>
      <path class="st0" d="M213,35.8c0-3.6,2.8-6.2,6.5-6.2s3.8.8,4.9,2.1l-1.8,1.6c-.8-.9-1.8-1.4-3-1.4-2.2,0-3.8,1.6-3.8,3.8s1.6,3.8,3.8,3.8,2.2-.5,3-1.4l1.8,1.6c-1.1,1.4-2.8,2.1-4.9,2.1-3.7,0-6.4-2.6-6.4-6.2Z"/>
      <path class="st0" d="M225.5,35.8c0-3.6,2.8-6.2,6.5-6.2s6.5,2.6,6.5,6.2-2.8,6.2-6.5,6.2-6.5-2.6-6.5-6.2ZM235.7,35.8c0-2.3-1.6-3.8-3.7-3.8s-3.7,1.6-3.7,3.8,1.6,3.8,3.7,3.8,3.7-1.6,3.7-3.8Z"/>
      <path class="st0" d="M251.4,41.8v-7.2s-3.5,5.9-3.5,5.9h-1.2l-3.5-5.8v7.1h-2.6v-12h2.3l4.5,7.5,4.4-7.5h2.3v12s-2.6,0-2.6,0Z"/>
      <path class="st0" d="M267.1,34.2c0,2.7-2,4.3-5.2,4.3h-2.4v3.3h-2.8v-12h5.2c3.2,0,5.2,1.7,5.2,4.4ZM264.3,34.2c0-1.3-.8-2.1-2.5-2.1h-2.2v4.2h2.2c1.7,0,2.5-.8,2.5-2.1Z"/>
      <path class="st0" d="M277.1,39.3h-5.5l-1.1,2.6h-2.8l5.3-12h2.7l5.3,12h-2.9l-1.1-2.6ZM276.2,37.2l-1.9-4.6-1.9,4.6h3.8Z"/>
      <path class="st0" d="M293.2,29.8v12h-2.3l-5.9-7.3v7.3h-2.7v-12h2.3l5.9,7.3v-7.3h2.7Z"/>
      <path class="st0" d="M296,29.8h2.8v12h-2.8v-12Z"/>
      <path class="st0" d="M310.8,39.6v2.2h-9.2v-12h9v2.2h-6.3v2.6h5.5v2.2h-5.5v2.8h6.5Z"/>
      <path class="st0" d="M312,40.7l.9-2.1c1,.7,2.5,1.3,3.9,1.3s2.3-.5,2.3-1.3c0-2.2-6.9-.7-6.9-5.2s1.6-3.7,5-3.7,3,.4,4.1,1.1l-.8,2.1c-1.1-.6-2.2-.9-3.3-.9-1.6,0-2.3.6-2.3,1.4,0,2.2,6.9.7,6.9,5.1s-1.6,3.7-5.1,3.7-3.8-.6-4.8-1.4Z"/>
    </g>
    <g>
      <path class="st0" d="M223.9,15.7h3v6.2c-1.6,1.3-3.7,1.9-5.8,1.9-4.5,0-7.8-3.3-7.8-7.9s3.3-7.9,7.8-7.9,4.6.9,6,2.6l-2.1,2.1c-1-1.2-2.2-1.7-3.7-1.7-2.8,0-4.7,2-4.7,4.9s1.9,4.9,4.6,4.9,1.7-.2,2.6-.7v-4.5Z"/>
      <path class="st0" d="M238.3,23.6l-2.7-4.3h-3v4.3h-3.3v-15.3h6.2c3.8,0,6.2,2.1,6.2,5.6s-1.1,4-2.9,4.8l3.2,4.9h-3.5ZM235.2,11.2h-2.7v5.3h2.7c2,0,3-1,3-2.7s-1-2.7-3-2.7Z"/>
      <path class="st0" d="M242.6,15.9c0-4.5,3.3-7.9,7.8-7.9s7.8,3.3,7.8,7.9-3.3,7.9-7.8,7.9-7.8-3.4-7.8-7.9ZM254.8,15.9c0-2.9-1.9-4.9-4.4-4.9s-4.4,2-4.4,4.9,1.9,4.9,4.4,4.9,4.4-2,4.4-4.9Z"/>
      <path class="st0" d="M259.8,16.8v-8.6h3.3v8.4c0,2.9,1.2,4.1,3.2,4.1s3.2-1.2,3.2-4.1v-8.4h3.3v8.6c0,4.5-2.4,7-6.4,7s-6.4-2.5-6.4-7Z"/>
      <path class="st0" d="M287.6,13.8c0,3.4-2.4,5.5-6.2,5.5h-2.9v4.2h-3.3v-15.3h6.2c3.8,0,6.2,2.1,6.2,5.6ZM284.2,13.8c0-1.7-1-2.7-3-2.7h-2.7v5.3h2.7c2,0,3-1,3-2.6Z"/>
      <path class="st0" d="M293.5,15.9c0-4.5,3.3-7.9,7.8-7.9s7.8,3.3,7.8,7.9-3.3,7.9-7.8,7.9-7.8-3.4-7.8-7.9ZM305.8,15.9c0-2.9-1.9-4.9-4.4-4.9s-4.4,2-4.4,4.9,1.9,4.9,4.4,4.9,4.4-2,4.4-4.9Z"/>
      <path class="st0" d="M314.2,11.1v4h6.6v2.8h-6.6v5.6h-3.3v-15.3h10.7v2.8h-7.5Z"/>
    </g>
  </g>
  <g>
    <path class="st1" d="M43,23.7c0-6.1,2.1-11.6,5.5-15.7-.8-1.6-1.6-3.1-2.4-4.7,0,0,0-.2-.1-.3,0,0,0,.1-.1.2-1,1.9-1.9,3.8-2.9,5.7-.4.7-.8,1.5-1.1,2.2-.3.6-.7.8-1.2.7-.3,0-.6-.1-.8-.3-.7-.4-1.5-.8-2.2-1.2-.3-.2-.7-.4-1-.5,0,0,0,0,0,.1.1.6.2,1.3.3,1.9.3,1.9.7,3.9,1,5.8.3,1.5.6,3.1.8,4.6,0,.4.1.8,0,1.3-.1.5-.5.8-1,.7-.3,0-.6-.3-.8-.5-1.4-1.7-2.8-3.3-4.3-5-.4-.4-.7-.8-1.1-1.3,0,0,0,.1,0,.2-.3,1-.5,1.9-.8,2.9-.2.7-.7,1-1.4.8-1.8-.4-3.5-.8-5.3-1.2-.4,0-.8-.2-1.3-.3,0,0,0,0,0,.1.4,1.3.7,2.7,1.1,4,.3,1.3.7,2.5,1,3.8.2.6,0,1-.5,1.2-.6.3-1.2.6-1.8.8-.3.1-.5.3-.8.4,0,0,.1.1.2.1,3,2.6,6.1,5.2,9.1,7.7.7.6,1.5,1.3,2.2,1.9.5.5.7,1.1.5,1.7-.1.5-.3,1-.4,1.5-.2.6-.4,1.2-.5,1.8,1.1-.1,2.2-.3,3.2-.4,1.3-.2,2.7-.3,4-.5,1.4-.2,2.8-.3,4.2-.5h3.3c1.1.2,2.2.3,3.3.4,1.1.1,2.2.3,3.3.4.4,0,.8,0,1.2.1-7.4-3.3-12.6-11.5-12.6-21.2"/>
    <path class="st1" d="M68.8,10.8c2-1,4.3-1.6,6.7-1.6s4.7.6,6.7,1.6h9.1c-3.8-4.5-9.5-7.3-15.8-7.3s-12,2.8-15.8,7.3h9.1Z"/>
    <path class="st1" d="M93.6,14h-7c2.5,2.7,4,6.2,4,10.1,0,8.3-6.7,15-15,15s-15-6.7-15-15,1.5-7.5,4-10.1h-7c-1.7,3-2.7,6.4-2.7,10.1,0,11.4,9.3,20.7,20.7,20.7s20.7-9.3,20.7-20.7-1-7.1-2.7-10.1"/>
    <path class="st1" d="M55.8,10.8c2.7-3.6,6.3-6.3,10.3-7.3-6.1-.1-11.6,2.7-15.3,7.3h5Z"/>
    <path class="st1" d="M51.1,23.3c.2-3.2,1.1-6.4,2.6-9.3h-5.1c-1.5,2.8-2.4,6-2.5,9.3-.3,11.5,8.7,21.7,20,21.5-8-2.7-15.5-11.8-15-21.6"/>
  </g>
</svg>